<svg width="360" height="210" viewBox="0 0 360 210" fill="none" xmlns="http://www.w3.org/2000/svg">
<path d="M326.429 155.971C326.429 155.971 338.054 85.3249 296.275 47.3617C259.392 13.8481 202.838 2.66893 158.515 33.6625C142.714 44.7025 123.955 56.0113 105.235 63.0433C84.2545 70.9249 60.8593 73.2961 42.4033 103.954C23.9473 134.611 36.6433 183.111 63.9169 202.311C91.1905 221.511 139.152 219.557 180.648 216.231C222.144 212.904 308.424 243.317 326.429 155.971Z" fill="#3ECF58"/>
<path opacity="0.7" d="M326.429 155.971C326.429 155.971 338.054 85.3249 296.275 47.3617C259.392 13.8481 202.838 2.66893 158.515 33.6625C142.714 44.7025 123.955 56.0113 105.235 63.0433C84.2545 70.9249 60.8593 73.2961 42.4033 103.954C23.9473 134.611 36.6433 183.111 63.9169 202.311C91.1905 221.511 139.152 219.557 180.648 216.231C222.144 212.904 308.424 243.317 326.429 155.971Z" fill="white"/>
<path d="M166.551 113.755H46.4551V203.539H166.551V113.755Z" stroke="#ABABAB" stroke-miterlimit="10"/>
<path d="M166.551 141.725H46.4551V145.814H166.551V141.725Z" stroke="#ABABAB" stroke-miterlimit="10"/>
<path d="M51.3605 168.35C51.3605 168.35 57.6005 160.435 66.7205 160.915C75.8405 161.395 77.5157 168.595 77.5157 168.595H48.4805L51.3605 168.35Z" stroke="#ABABAB" stroke-miterlimit="10"/>
<path d="M59.2949 169.31C59.2949 169.31 60.9605 160.915 66.7205 160.915" stroke="#ABABAB" stroke-miterlimit="10"/>
<path d="M68.1602 168.83C68.1602 168.83 68.8802 162.355 73.9202 163.315" stroke="#ABABAB" stroke-miterlimit="10"/>
<path d="M92.88 168.35C92.88 168.35 99.12 160.435 108.24 160.915C117.36 161.395 119.035 168.595 119.035 168.595H90L92.88 168.35Z" stroke="#ABABAB" stroke-miterlimit="10"/>
<path d="M100.801 169.31C100.801 169.31 102.481 160.915 108.241 160.915" stroke="#ABABAB" stroke-miterlimit="10"/>
<path d="M109.676 168.83C109.676 168.83 110.396 162.355 115.436 163.315" stroke="#ABABAB" stroke-miterlimit="10"/>
<path d="M134.401 168.35C134.401 168.35 140.641 160.435 149.761 160.915C158.881 161.395 160.557 168.595 160.557 168.595H131.521L134.401 168.35Z" stroke="#ABABAB" stroke-miterlimit="10"/>
<path d="M142.301 169.31C142.301 169.31 144 160.915 149.76 160.915" stroke="#ABABAB" stroke-miterlimit="10"/>
<path d="M151.201 168.83C151.201 168.83 151.921 162.355 156.961 163.315" stroke="#ABABAB" stroke-miterlimit="10"/>
<path d="M166.551 168.6H46.4551V172.689H166.551V168.6Z" stroke="#ABABAB" stroke-miterlimit="10"/>
<path d="M166.551 113.755H46.4551V117.835H166.551V113.755Z" stroke="#ABABAB" stroke-miterlimit="10"/>
<path d="M166.551 191.645H46.4551V203.544H166.551V191.645Z" stroke="#ABABAB" stroke-miterlimit="10"/>
<path d="M69.3699 127.569H53.0547V141.965H69.3699V127.569Z" stroke="#ABABAB" stroke-miterlimit="10"/>
<path d="M69.3699 127.569H53.0547V129.686H69.3699V127.569Z" stroke="#ABABAB" stroke-miterlimit="10"/>
<path d="M134.147 127.569H84.0059V141.965H134.147V127.569Z" stroke="#ABABAB" stroke-miterlimit="10"/>
<path d="M134.147 127.569H84.0059V129.686H134.147V127.569Z" stroke="#ABABAB" stroke-miterlimit="10"/>
<path d="M120.951 127.569H107.275V141.965H120.951V127.569Z" stroke="#ABABAB" stroke-miterlimit="10"/>
<path d="M120.951 127.569H107.275V129.686H120.951V127.569Z" stroke="#ABABAB" stroke-miterlimit="10"/>
<path d="M255.058 39.5615H176.885V144.456H255.058V39.5615Z" stroke="#ABABAB" stroke-miterlimit="10"/>
<path d="M185.789 66.2783H213.341" stroke="#ABABAB" stroke-miterlimit="10"/>
<path d="M185.789 78.1533H213.341" stroke="#ABABAB" stroke-miterlimit="10"/>
<path d="M185.789 90.0283H213.341" stroke="#ABABAB" stroke-miterlimit="10"/>
<path d="M185.789 101.904H213.341" stroke="#ABABAB" stroke-miterlimit="10"/>
<path d="M185.789 113.779H213.341" stroke="#ABABAB" stroke-miterlimit="10"/>
<path d="M185.789 125.654H213.341" stroke="#ABABAB" stroke-miterlimit="10"/>
<path d="M219.096 66.2783H246.648" stroke="#ABABAB" stroke-miterlimit="10"/>
<path d="M219.096 78.1533H246.648" stroke="#ABABAB" stroke-miterlimit="10"/>
<path d="M219.096 90.0283H246.648" stroke="#ABABAB" stroke-miterlimit="10"/>
<path d="M219.096 101.904H246.648" stroke="#ABABAB" stroke-miterlimit="10"/>
<path d="M219.096 113.779H246.648" stroke="#ABABAB" stroke-miterlimit="10"/>
<path d="M219.096 125.654H246.648" stroke="#ABABAB" stroke-miterlimit="10"/>
<path d="M202.78 58.8765C202.107 58.908 201.439 58.7411 200.86 58.3965C200.397 58.0995 200.049 57.6521 199.876 57.1293C199.675 56.5229 199.58 55.8865 199.593 55.2477V51.3597C199.579 50.7084 199.675 50.0594 199.876 49.4397C200.049 48.9204 200.397 48.4773 200.86 48.1869C201.446 47.8626 202.112 47.7096 202.78 47.7453C203.413 47.7125 204.044 47.8466 204.609 48.1341C205.048 48.3768 205.388 48.7658 205.569 49.2333C205.761 49.7607 205.853 50.3188 205.843 50.8797V51.7917H203.702V50.7741C203.703 50.5398 203.688 50.3057 203.659 50.0733C203.642 49.8756 203.565 49.6878 203.438 49.5357C203.355 49.4584 203.256 49.3999 203.148 49.3643C203.041 49.3287 202.927 49.3167 202.814 49.3293C202.698 49.3194 202.581 49.333 202.471 49.3693C202.36 49.4056 202.258 49.4638 202.171 49.5405C202.033 49.6968 201.944 49.8906 201.916 50.0973C201.88 50.3485 201.863 50.602 201.863 50.8557V55.7853C201.859 56.053 201.885 56.3203 201.94 56.5821C201.972 56.7828 202.07 56.967 202.219 57.1053C202.388 57.2363 202.6 57.3012 202.814 57.2877C202.924 57.2995 203.036 57.2871 203.141 57.2515C203.247 57.2158 203.343 57.1578 203.423 57.0813C203.554 56.9226 203.634 56.7288 203.654 56.5245C203.685 56.2793 203.701 56.0325 203.702 55.7853V54.7197H205.843V55.6173C205.855 56.1889 205.764 56.758 205.574 57.2973C205.406 57.7747 205.081 58.1809 204.652 58.4493C204.082 58.7687 203.432 58.917 202.78 58.8765Z" fill="#ABABAB"/>
<path d="M209.505 58.8625C209.009 58.8781 208.515 58.7761 208.065 58.5649C207.682 58.3737 207.37 58.0662 207.173 57.6865C206.96 57.2369 206.858 56.7433 206.875 56.2465V53.4577C206.858 52.9608 206.96 52.467 207.173 52.0177C207.37 51.6379 207.682 51.3304 208.065 51.1393C208.512 50.9399 208.997 50.8369 209.486 50.8369C209.976 50.8369 210.46 50.9399 210.907 51.1393C211.29 51.3314 211.604 51.6385 211.805 52.0177C212.025 52.4645 212.131 52.9596 212.112 53.4577V56.2465C212.13 56.7445 212.025 57.2393 211.805 57.6865C211.604 58.0656 211.29 58.3727 210.907 58.5649C210.469 58.7703 209.989 58.8721 209.505 58.8625ZM209.505 57.4993C209.577 57.5039 209.648 57.4935 209.715 57.4687C209.782 57.4438 209.843 57.4052 209.894 57.3553C209.991 57.2469 210.051 57.1109 210.067 56.9665C210.096 56.7791 210.109 56.5896 210.105 56.4001V53.3281C210.109 53.1353 210.096 52.9426 210.067 52.7521C210.047 52.6087 209.987 52.4739 209.894 52.3633C209.843 52.3133 209.782 52.2747 209.715 52.2499C209.648 52.225 209.577 52.2146 209.505 52.2193C209.434 52.2127 209.362 52.2222 209.295 52.2471C209.227 52.272 209.166 52.3117 209.117 52.3633C209.022 52.4742 208.959 52.6085 208.934 52.7521C208.901 52.9423 208.885 53.135 208.886 53.3281V56.4001C208.886 56.5899 208.902 56.7794 208.934 56.9665C208.955 57.1112 209.019 57.2466 209.117 57.3553C209.168 57.4088 209.231 57.4497 209.301 57.4747C209.371 57.4997 209.446 57.5081 209.52 57.4993H209.505Z" fill="#ABABAB"/>
<path d="M213.672 58.7329V52.3633H212.895V50.9857H213.672V50.4481C213.665 50.0418 213.713 49.6365 213.816 49.2433C213.898 48.9174 214.101 48.6345 214.383 48.4513C214.786 48.2376 215.242 48.1412 215.698 48.1729H216.202C216.355 48.1729 216.533 48.2017 216.73 48.2305V49.7281L216.495 49.6801C216.411 49.6755 216.328 49.6755 216.245 49.6801C216.168 49.6726 216.09 49.684 216.018 49.7133C215.946 49.7426 215.882 49.7888 215.832 49.8481C215.729 50.004 215.682 50.19 215.698 50.3761V50.9953H216.73V52.3729H215.698V58.7425L213.672 58.7329ZM217.464 58.7329V52.3633H216.687V50.9857H217.464V50.4481C217.457 50.0418 217.505 49.6365 217.608 49.2433C217.69 48.9174 217.893 48.6345 218.175 48.4513C218.578 48.2376 219.034 48.1412 219.49 48.1729H219.994C220.147 48.1729 220.325 48.2017 220.522 48.2305V49.7281L220.287 49.6801C220.203 49.6755 220.12 49.6755 220.037 49.6801C219.96 49.6726 219.882 49.684 219.81 49.7133C219.738 49.7426 219.674 49.7888 219.624 49.8481C219.521 50.004 219.474 50.19 219.49 50.3761V50.9953H220.522V52.3729H219.49V58.7425L217.464 58.7329Z" fill="#ABABAB"/>
<path d="M223.805 58.8628C223.307 58.8821 222.811 58.7748 222.365 58.5508C221.984 58.3425 221.68 58.0179 221.496 57.6244C221.288 57.1634 221.186 56.6613 221.199 56.1556V53.5588C221.183 53.0481 221.285 52.5406 221.496 52.0756C221.686 51.6862 221.995 51.3681 222.38 51.1684C222.825 50.9429 223.321 50.8339 223.82 50.8516C224.32 50.8287 224.817 50.9397 225.26 51.1732C225.628 51.3956 225.913 51.7329 226.071 52.1332C226.256 52.6119 226.344 53.1226 226.33 53.6356V54.9892H223.2V56.4916C223.194 56.677 223.22 56.8621 223.277 57.0388C223.309 57.1604 223.382 57.2673 223.484 57.3412C223.585 57.3979 223.699 57.4277 223.815 57.4277C223.931 57.4277 224.045 57.3979 224.146 57.3412C224.246 57.2785 224.32 57.1811 224.352 57.0676C224.402 56.9125 224.425 56.7502 224.42 56.5876V55.8532H226.296V56.4964C226.318 56.8237 226.271 57.1518 226.161 57.4606C226.05 57.7694 225.877 58.0522 225.653 58.2916C225.136 58.7165 224.472 58.9215 223.805 58.8628ZM223.2 54.0004H224.42V53.2372C224.427 53.0539 224.404 52.8708 224.352 52.6948C224.325 52.5724 224.251 52.4656 224.146 52.3972C224.038 52.3354 223.915 52.3054 223.791 52.3108C223.674 52.3059 223.56 52.3396 223.464 52.4068C223.366 52.492 223.297 52.6063 223.268 52.7332C223.217 52.9502 223.195 53.1728 223.2 53.3956V54.0004Z" fill="#ABABAB"/>
<path d="M229.967 58.8628C229.469 58.8821 228.973 58.7748 228.527 58.5508C228.146 58.3425 227.842 58.0179 227.659 57.6244C227.45 57.1634 227.348 56.6613 227.361 56.1556V53.5588C227.345 53.0481 227.447 52.5406 227.659 52.0756C227.848 51.6862 228.158 51.3681 228.542 51.1684C228.988 50.9434 229.483 50.8345 229.982 50.8516C230.482 50.8287 230.979 50.9397 231.422 51.1732C231.79 51.3956 232.075 51.7329 232.233 52.1332C232.418 52.6119 232.506 53.1226 232.492 53.6356V54.9892H229.382V56.4916C229.378 56.6769 229.404 56.8616 229.459 57.0388C229.492 57.1596 229.565 57.266 229.665 57.3412C229.766 57.4016 229.883 57.4316 230.001 57.4276C230.116 57.4306 230.229 57.4006 230.327 57.3412C230.427 57.2768 230.502 57.1802 230.539 57.0676C230.586 56.912 230.608 56.7501 230.606 56.5876V55.8532H232.478V56.4964C232.501 56.8239 232.456 57.1527 232.345 57.4618C232.235 57.7709 232.061 58.0535 231.835 58.2916C231.576 58.5048 231.278 58.665 230.958 58.7631C230.637 58.8611 230.301 58.8949 229.967 58.8628ZM229.363 54.0004H230.587V53.2372C230.591 53.054 230.569 52.8712 230.519 52.6948C230.487 52.5736 230.412 52.4681 230.308 52.3972C230.2 52.3354 230.077 52.3054 229.953 52.3108C229.837 52.3066 229.722 52.3403 229.627 52.4068C229.528 52.492 229.459 52.6063 229.43 52.7332C229.379 52.9502 229.357 53.1728 229.363 53.3956V54.0004Z" fill="#ABABAB"/>
<path d="M320.857 74.7314H260.42V144.451H320.857V74.7314Z" stroke="#ABABAB" stroke-miterlimit="10"/>
<path d="M267.303 84.0195H288.605" stroke="#ABABAB" stroke-miterlimit="10"/>
<path d="M267.303 93.2012H288.605" stroke="#ABABAB" stroke-miterlimit="10"/>
<path d="M267.303 102.379H288.605" stroke="#ABABAB" stroke-miterlimit="10"/>
<path d="M267.303 111.562H288.605" stroke="#ABABAB" stroke-miterlimit="10"/>
<path d="M267.303 120.739H288.605" stroke="#ABABAB" stroke-miterlimit="10"/>
<path d="M267.303 129.922H288.605" stroke="#ABABAB" stroke-miterlimit="10"/>
<path d="M293.055 84.0195H314.352" stroke="#ABABAB" stroke-miterlimit="10"/>
<path d="M293.055 93.2012H314.352" stroke="#ABABAB" stroke-miterlimit="10"/>
<path d="M293.055 102.379H314.352" stroke="#ABABAB" stroke-miterlimit="10"/>
<path d="M293.055 111.562H314.352" stroke="#ABABAB" stroke-miterlimit="10"/>
<path d="M293.055 120.739H314.352" stroke="#ABABAB" stroke-miterlimit="10"/>
<path d="M293.055 129.922H314.352" stroke="#ABABAB" stroke-miterlimit="10"/>
<path d="M84.0009 52.8616L78.1881 44.5576H55.4361L49.6233 52.8616C46.5464 57.2635 44.9715 62.5405 45.1323 67.9087C45.2931 73.277 47.1812 78.4502 50.5161 82.66L53.2089 86.0536H80.4201L83.1129 82.66C86.4471 78.4497 88.3343 73.2762 88.4942 67.9079C88.6542 62.5397 87.0784 57.263 84.0009 52.8616Z" fill="white" stroke="#263238" stroke-linecap="round" stroke-linejoin="round"/>
<path d="M49.6133 52.8623H60.2981" stroke="#263238" stroke-linecap="round" stroke-linejoin="round"/>
<path d="M72.1161 56.2646H63.1113" stroke="#263238" stroke-linecap="round" stroke-linejoin="round"/>
<path d="M88.1487 72.0186H67.0527" stroke="#263238" stroke-linecap="round" stroke-linejoin="round"/>
<path d="M49.6094 71.7354H57.7694" stroke="#263238" stroke-linecap="round" stroke-linejoin="round"/>
<path d="M77.7419 67.5166H71.2715" stroke="#263238" stroke-linecap="round" stroke-linejoin="round"/>
<path d="M58.0469 77.9229H63.6773" stroke="#263238" stroke-linecap="round" stroke-linejoin="round"/>
<path d="M79.4273 47.2646H74.6465" stroke="#263238" stroke-linecap="round" stroke-linejoin="round"/>
<path d="M66.8027 44.5195V12.3115" stroke="#263238" stroke-linecap="round" stroke-linejoin="round"/>
<path d="M187.494 52.8616L181.681 44.5576H158.929L153.121 52.8616C150.044 57.2635 148.47 62.5405 148.63 67.9087C148.791 73.277 150.679 78.4502 154.014 82.66L156.707 86.0536H183.913L186.606 82.66C189.94 78.4497 191.828 73.2762 191.987 67.9079C192.147 62.5397 190.572 57.263 187.494 52.8616Z" fill="white" stroke="#263238" stroke-linecap="round" stroke-linejoin="round"/>
<path d="M153.115 52.8623H163.8" stroke="#263238" stroke-linecap="round" stroke-linejoin="round"/>
<path d="M175.613 56.2646H166.613" stroke="#263238" stroke-linecap="round" stroke-linejoin="round"/>
<path d="M191.65 72.0186H170.549" stroke="#263238" stroke-linecap="round" stroke-linejoin="round"/>
<path d="M153.111 71.7354H161.267" stroke="#263238" stroke-linecap="round" stroke-linejoin="round"/>
<path d="M181.24 67.5166H174.77" stroke="#263238" stroke-linecap="round" stroke-linejoin="round"/>
<path d="M161.549 77.9229H167.174" stroke="#263238" stroke-linecap="round" stroke-linejoin="round"/>
<path d="M182.929 47.2646H178.148" stroke="#263238" stroke-linecap="round" stroke-linejoin="round"/>
<path d="M170.305 44.5195V12.3115" stroke="#263238" stroke-linecap="round" stroke-linejoin="round"/>
<path d="M304.089 168.408C305.261 168.922 308.131 168.859 308.136 168.859C308.141 168.859 307.517 166.978 307.464 166.862C306.835 165.547 304.843 163.368 303.221 163.589C302.951 163.63 302.694 163.728 302.465 163.877C302.237 164.025 302.043 164.221 301.896 164.45C301.749 164.679 301.652 164.937 301.612 165.206C301.573 165.476 301.591 165.751 301.665 166.013C301.92 167.136 303.086 167.971 304.089 168.408Z" fill="#263238"/>
<path d="M333.12 169.041C333.144 169.041 333.643 167.121 333.663 167.006C333.864 165.566 333.399 162.647 331.93 161.932C331.682 161.818 331.413 161.758 331.141 161.756C330.868 161.754 330.598 161.81 330.349 161.92C330.099 162.031 329.876 162.193 329.695 162.396C329.513 162.599 329.377 162.839 329.295 163.099C328.901 164.188 329.4 165.499 329.991 166.435C330.72 167.52 333.12 169.041 333.12 169.041Z" fill="#263238"/>
<path d="M305.078 176.726C306.297 176.904 308.861 176.16 309.062 176.102C309.484 177.568 310.003 179.003 310.617 180.398C310.968 181.214 311.352 182.026 311.741 182.837C311.505 182.496 311.294 182.189 311.261 182.15C310.301 181.046 307.809 179.472 306.302 180.11C306.054 180.222 305.832 180.385 305.651 180.589C305.47 180.793 305.335 181.033 305.254 181.293C305.173 181.553 305.149 181.827 305.182 182.098C305.216 182.368 305.306 182.628 305.448 182.861C306.005 183.874 307.334 184.373 308.414 184.531C309.494 184.69 311.707 184.104 312.288 183.936C312.441 184.248 312.59 184.555 312.744 184.862C313.488 186.341 314.232 187.814 314.923 189.278C315.163 189.797 315.403 190.31 315.605 190.829C315.398 190.526 315.221 190.272 315.192 190.234C314.232 189.13 311.741 187.555 310.233 188.198C309.984 188.309 309.762 188.472 309.581 188.676C309.4 188.879 309.264 189.119 309.183 189.379C309.101 189.64 309.076 189.914 309.109 190.185C309.142 190.455 309.233 190.716 309.374 190.949C309.931 191.957 311.261 192.461 312.341 192.614C313.421 192.768 315.422 192.245 316.109 192.053C316.32 192.586 316.536 193.123 316.713 193.651C316.829 194.016 316.968 194.362 317.064 194.731C317.16 195.101 317.265 195.461 317.366 195.821C317.534 196.522 317.712 197.261 317.846 197.928C317.952 198.408 318.043 198.859 318.139 199.315C317.904 198.802 317.419 197.798 317.371 197.717C316.593 196.483 314.366 194.549 312.777 194.952C312.514 195.024 312.27 195.152 312.06 195.326C311.85 195.5 311.68 195.717 311.56 195.963C311.441 196.208 311.375 196.476 311.367 196.748C311.359 197.021 311.41 197.292 311.515 197.544C311.913 198.629 313.152 199.325 314.193 199.642C315.345 199.992 317.885 199.67 318.206 199.642C318.355 200.4 318.499 201.139 318.619 201.84C318.705 202.32 318.777 202.771 318.849 203.213H319.867C319.776 202.733 319.68 202.205 319.574 201.662C319.421 200.89 319.243 200.069 319.051 199.224C319.818 198.92 320.565 198.569 321.288 198.173C322.128 199.08 324.273 200.141 324.552 200.275C324.259 200.995 323.966 201.691 323.683 202.344L323.299 203.213H324.369C324.437 203.05 324.509 202.886 324.576 202.733C324.873 202.008 325.181 201.221 325.488 200.414C325.795 200.477 328.31 200.99 329.486 200.726C330.552 200.486 331.838 199.882 332.313 198.83C332.436 198.587 332.506 198.321 332.518 198.049C332.53 197.777 332.484 197.506 332.384 197.253C332.283 197 332.129 196.772 331.934 196.583C331.738 196.394 331.504 196.249 331.248 196.157C329.697 195.634 327.331 197.395 326.448 198.557C326.395 198.624 325.925 199.44 325.637 199.958C325.761 199.627 325.881 199.31 326.006 198.965C326.256 198.293 326.486 197.611 326.726 196.882C326.837 196.522 326.942 196.162 327.053 195.797C327.163 195.432 327.245 195.043 327.341 194.664C327.552 193.781 327.725 192.874 327.873 191.952C328.469 192.168 330.576 192.912 331.67 192.826C332.765 192.739 334.123 192.346 334.757 191.386C334.914 191.164 335.023 190.911 335.076 190.644C335.129 190.377 335.124 190.102 335.062 189.837C335.001 189.572 334.883 189.323 334.718 189.106C334.553 188.89 334.343 188.712 334.104 188.582C332.664 187.829 330.043 189.211 329.006 190.243C328.944 190.306 328.286 191.131 327.931 191.587C328.017 191.035 328.109 190.488 328.176 189.922C328.377 188.304 328.531 186.653 328.689 185.011C328.737 184.507 328.795 184.008 328.848 183.504C329.059 183.586 331.545 184.512 332.769 184.426C333.859 184.349 335.222 183.946 335.856 182.986C336.015 182.764 336.124 182.511 336.177 182.243C336.23 181.975 336.226 181.7 336.164 181.434C336.102 181.168 335.985 180.919 335.819 180.702C335.653 180.486 335.443 180.307 335.203 180.178C333.763 179.429 331.142 180.811 330.11 181.843C330.029 181.92 329.083 183.106 328.857 183.418C328.973 182.314 329.102 181.214 329.27 180.134C329.496 178.675 329.817 177.232 330.23 175.814C330.326 175.848 332.923 176.827 334.176 176.741C335.265 176.664 336.629 176.261 337.262 175.301C337.42 175.079 337.529 174.826 337.582 174.559C337.634 174.292 337.63 174.017 337.568 173.752C337.506 173.487 337.389 173.238 337.224 173.022C337.058 172.805 336.849 172.627 336.609 172.498C335.169 171.744 332.549 173.126 331.517 174.158C331.445 174.226 330.725 175.118 330.389 175.565L330.307 175.522C330.756 174.107 331.33 172.735 332.021 171.422C332.395 170.693 332.793 170.016 333.192 169.368C333.672 169.603 335.789 170.64 336.926 170.683C338.064 170.726 339.417 170.482 340.152 169.589C340.337 169.385 340.476 169.145 340.56 168.883C340.644 168.621 340.671 168.344 340.638 168.071C340.606 167.798 340.516 167.535 340.373 167.3C340.23 167.065 340.038 166.863 339.811 166.709C338.453 165.802 335.707 166.891 334.565 167.798C334.502 167.851 333.926 168.422 333.513 168.845C333.701 168.557 333.883 168.254 334.07 167.981C334.752 166.949 335.443 166.061 336.062 165.254C336.417 164.808 336.744 164.41 337.056 164.04C337.632 164.04 339.936 163.958 340.958 163.483C341.981 163.008 343.075 162.154 343.315 161.026C343.386 160.761 343.399 160.484 343.353 160.213C343.308 159.943 343.205 159.685 343.052 159.458C342.899 159.23 342.699 159.038 342.465 158.895C342.231 158.751 341.97 158.659 341.697 158.626C340.07 158.453 338.136 160.68 337.541 162.014C337.493 162.13 336.893 164.026 336.926 164.026H336.96C336.653 164.376 336.326 164.75 336 165.173C335.366 165.955 334.656 166.843 333.945 167.866C333.17 168.955 332.456 170.088 331.809 171.259C331.084 172.571 330.475 173.945 329.99 175.363V175.416C329.99 174.936 329.99 173.597 329.961 173.496C329.774 172.056 328.56 169.358 326.952 169.061C326.683 169.016 326.407 169.03 326.144 169.1C325.88 169.17 325.635 169.296 325.424 169.468C325.212 169.641 325.04 169.856 324.919 170.101C324.798 170.345 324.73 170.612 324.72 170.885C324.624 172.032 325.459 173.184 326.275 173.914C327.192 174.734 329.741 175.526 329.942 175.589C329.483 177.044 329.124 178.529 328.867 180.034C328.709 180.907 328.579 181.795 328.459 182.683C328.459 182.27 328.459 181.901 328.459 181.848C328.272 180.408 327.057 177.71 325.449 177.413C325.18 177.368 324.905 177.38 324.641 177.45C324.377 177.519 324.131 177.645 323.92 177.817C323.708 177.989 323.536 178.204 323.414 178.448C323.292 178.692 323.223 178.959 323.213 179.232C323.121 180.384 323.957 181.536 324.768 182.266C325.579 182.995 327.753 183.706 328.325 183.902L328.195 184.93C327.998 186.571 327.811 188.213 327.576 189.811C327.494 190.378 327.393 190.93 327.293 191.482C327.293 191.117 327.293 190.805 327.293 190.757C327.105 189.317 325.891 186.619 324.283 186.322C324.014 186.277 323.739 186.29 323.475 186.361C323.212 186.431 322.966 186.557 322.755 186.729C322.544 186.902 322.372 187.117 322.25 187.361C322.129 187.606 322.061 187.873 322.051 188.146C321.955 189.293 322.79 190.45 323.601 191.174C324.413 191.899 326.376 192.562 327.057 192.782C326.937 193.344 326.822 193.91 326.678 194.453C326.573 194.818 326.501 195.178 326.376 195.542C326.251 195.907 326.141 196.262 326.025 196.618C325.781 197.294 325.545 197.99 325.277 198.643C325.099 199.099 324.926 199.531 324.749 199.963C324.84 199.406 324.989 198.302 324.993 198.206C324.972 196.923 324.625 195.666 323.985 194.554C323.988 194.409 323.978 194.265 323.957 194.122C323.925 193.851 323.836 193.59 323.696 193.357C323.556 193.123 323.368 192.922 323.144 192.767C322.92 192.611 322.666 192.505 322.398 192.456C322.13 192.407 321.855 192.415 321.59 192.48C320.006 192.902 319.008 195.677 318.931 197.136C318.931 197.222 318.984 198.163 319.027 198.754C318.95 198.408 318.873 198.077 318.787 197.722C318.624 197.021 318.437 196.33 318.24 195.586C318.134 195.226 318.024 194.866 317.913 194.501C317.803 194.136 317.659 193.766 317.529 193.397C317.217 192.542 316.862 191.688 316.478 190.838C317.093 190.694 319.257 190.142 320.126 189.475C320.995 188.808 321.912 187.723 321.902 186.571C321.912 186.299 321.864 186.027 321.761 185.775C321.658 185.522 321.502 185.294 321.304 185.107C321.106 184.919 320.87 184.776 320.613 184.687C320.355 184.597 320.081 184.564 319.809 184.589C318.187 184.766 316.771 187.354 316.478 188.784C316.478 188.875 316.363 189.926 316.32 190.502C316.089 189.994 315.84 189.485 315.609 188.976C314.88 187.536 314.102 186.053 313.325 184.598L312.629 183.254C312.845 183.202 315.432 182.602 316.406 181.858C317.27 181.19 318.192 180.106 318.182 178.949C318.192 178.676 318.144 178.405 318.041 178.152C317.938 177.9 317.782 177.672 317.584 177.485C317.386 177.297 317.15 177.154 316.893 177.064C316.635 176.975 316.361 176.942 316.089 176.966C314.467 177.144 313.056 179.736 312.758 181.166C312.758 181.272 312.6 182.784 312.585 183.173C312.072 182.184 311.568 181.2 311.117 180.206C310.497 178.867 309.963 177.49 309.518 176.083C309.619 176.059 312.326 175.445 313.32 174.677C314.189 174.014 315.105 172.93 315.096 171.773C315.106 171.501 315.058 171.23 314.955 170.977C314.852 170.725 314.697 170.498 314.499 170.31C314.302 170.123 314.067 169.98 313.809 169.89C313.552 169.8 313.279 169.766 313.008 169.79C311.381 169.968 309.969 172.56 309.648 173.99C309.648 174.082 309.523 175.234 309.489 175.786H309.393C308.988 174.357 308.71 172.895 308.563 171.418C308.472 170.602 308.429 169.824 308.405 169.061C308.923 168.998 311.285 168.686 312.245 168.101C313.205 167.515 314.208 166.555 314.328 165.408C314.367 165.138 314.349 164.863 314.274 164.601C314.199 164.339 314.069 164.096 313.893 163.888C313.717 163.68 313.499 163.512 313.252 163.395C313.006 163.278 312.738 163.215 312.465 163.21C310.829 163.21 309.144 165.61 308.693 167.016C308.693 167.088 308.505 167.885 308.395 168.456C308.395 168.115 308.395 167.76 308.395 167.429C308.395 166.19 308.477 165.058 308.553 164.069C308.601 163.502 308.659 162.989 308.717 162.509C309.197 162.182 311.078 160.843 311.664 159.893C312.249 158.942 312.696 157.613 312.269 156.533C312.18 156.275 312.037 156.04 311.85 155.842C311.663 155.644 311.436 155.488 311.184 155.384C310.932 155.281 310.661 155.232 310.388 155.241C310.116 155.251 309.849 155.318 309.605 155.438C308.165 156.187 307.771 159.115 308.011 160.555C308.011 160.68 308.582 162.59 308.606 162.571H308.635C308.568 163.051 308.505 163.531 308.448 164.069C308.347 165.072 308.246 166.21 308.217 167.429C308.17 168.767 308.202 170.107 308.313 171.442C308.428 172.936 308.677 174.417 309.057 175.867V175.92C308.798 175.512 308.045 174.408 307.973 174.331C307.013 173.227 304.521 171.653 303.019 172.291C302.77 172.402 302.548 172.565 302.366 172.769C302.185 172.972 302.049 173.212 301.968 173.472C301.887 173.732 301.862 174.007 301.895 174.278C301.928 174.548 302.018 174.809 302.16 175.042C302.669 176.069 303.998 176.568 305.078 176.726Z" fill="#263238"/>
<path d="M338.213 203.669H28.3398" stroke="#263238" stroke-miterlimit="10"/>
<path d="M240.375 77.9955C240.375 77.9955 243.581 73.1043 245.266 73.0227C246.951 72.9411 253.114 76.9011 255.308 82.1427C257.501 87.3843 256.316 91.0035 253.388 92.6019C250.46 94.2003 248.919 94.9635 247.402 94.2915C246.488 93.8854 245.658 93.3124 244.954 92.6019C244.954 92.6019 246.135 95.4819 247.57 95.8947C249.005 96.3075 249.764 97.4115 247.825 97.4115C245.885 97.4115 243.269 94.6275 243.605 91.8435C243.941 89.0595 240.375 77.9955 240.375 77.9955Z" fill="#263238" stroke="#263238" stroke-miterlimit="10"/>
<path d="M202.263 177.12C202.263 177.12 186.486 194.453 185.598 195.451C184.915 196.181 184.172 196.85 183.375 197.453C183.375 197.453 171.932 194.232 169.71 194.007C167.487 193.781 161.713 198.874 160.378 200.64C159.638 201.567 159.073 202.621 158.713 203.751C159.822 204.087 172.489 204.087 175.268 204.087C178.047 204.087 187.489 202.752 188.266 202.416C189.044 202.08 206.818 192.533 206.818 192.533L206.372 177.533C206.372 177.533 204.039 176.64 202.263 177.12Z" fill="white" stroke="#263238" stroke-miterlimit="10"/>
<path d="M172.043 196.095C172.043 196.095 166.936 199.872 165.932 200.986C164.929 202.1 163.6 203.866 163.6 203.866" stroke="#263238" stroke-miterlimit="10"/>
<path d="M168.481 195.207C168.481 195.207 162.922 199.095 162.241 200.54C161.559 201.985 160.686 203.986 160.686 203.986" stroke="#263238" stroke-miterlimit="10"/>
<path d="M175.152 198.207C174.956 198.789 174.695 199.348 174.375 199.873C173.933 200.54 170.155 201.538 168.264 202.652C166.373 203.765 168.264 204.764 171.144 204.538C174.024 204.313 178.032 204.538 179.813 203.65C181.594 202.762 183.701 200.429 183.701 200.429" fill="white"/>
<path d="M175.152 198.207C174.956 198.789 174.695 199.348 174.375 199.873C173.933 200.54 170.155 201.538 168.264 202.652C166.373 203.765 168.264 204.764 171.144 204.538C174.024 204.313 178.032 204.538 179.813 203.65C181.594 202.762 183.701 200.429 183.701 200.429" stroke="#263238" stroke-miterlimit="10"/>
<path d="M204.481 169.541C204.481 169.541 201.813 168.878 201.601 169.877C201.39 170.875 199.825 176.765 200.493 177.557C201.16 178.349 205.158 179.779 205.715 179.669C206.272 179.558 204.481 169.541 204.481 169.541Z" fill="#3ECF58" stroke="#263238" stroke-miterlimit="10"/>
<path d="M219.687 121.872C219.687 121.872 214.887 125.299 210.303 128.112C205.719 130.925 203.962 131.28 203.962 133.056C203.962 134.832 203.583 163.238 203.583 163.238C203.583 163.238 203.074 168.312 204.471 173.006C205.867 177.701 206.247 203.693 206.247 203.693H257.986L256.21 186.446C256.21 186.446 262.301 133.565 261.01 131.41C259.719 129.254 244.8 121.363 244.8 121.363L219.687 121.872Z" fill="white" stroke="#263238" stroke-miterlimit="10"/>
<path d="M206.248 203.669H257.987L256.211 186.423C256.211 186.423 256.691 182.472 257.301 176.693L240.232 176.914C240.232 176.914 236.81 157.762 237.698 151.042C238.586 144.322 243.784 121.493 243.784 121.493L240.866 121.872L232.226 149.775L211.427 147.855L219.544 123L218.656 122.876C218.656 122.876 209.536 142.277 206.863 150.773C205.394 155.448 204.275 159.927 203.565 163.013V163.2C203.565 163.2 203.056 168.274 204.453 172.968C205.85 177.663 206.248 203.669 206.248 203.669Z" fill="#263238" stroke="#263238" stroke-miterlimit="10"/>
<path d="M213.227 203.669C213.583 192.845 214.591 160.68 214.087 159.158C213.741 158.136 215.575 152.87 217.327 148.411L216.847 148.363C215.407 152.035 213.208 158.002 213.645 159.307C214.082 160.613 213.309 187.147 212.762 203.669H213.227Z" fill="#828282"/>
<path d="M218.234 159.84C218.234 158.165 220.091 152.026 221.114 148.772L220.634 148.724C219.597 152.026 217.754 158.098 217.754 159.84C217.754 161.583 216.794 189.6 216.266 203.684H216.746C217.25 189.567 218.234 161.583 218.234 159.84Z" fill="#828282"/>
<path d="M222.174 161.035C222.323 159.845 223.503 152.472 224.055 149.035L223.575 148.992C223.019 152.453 221.847 159.792 221.699 160.992C221.521 162.399 219.668 195.682 219.227 203.683H219.707C220.148 195.725 222.001 162.408 222.174 161.035Z" fill="#828282"/>
<path d="M228.079 149.391L227.603 149.348L223.807 203.669H224.287L228.079 149.391Z" fill="#828282"/>
<path d="M218.372 123.528C217.728 124.906 216.13 128.357 214.292 132.485C211.412 139.618 207.572 149.424 205.287 156.245C204.581 158.832 204.01 161.18 203.583 163.028V163.2C203.48 164.45 203.461 165.706 203.525 166.959C203.626 165.284 203.727 163.992 203.818 163.229C204.572 157.071 218.304 123.869 218.444 123.548L218.372 123.528Z" fill="#828282"/>
<path d="M210.937 158.487C211.066 157.719 212.511 153.485 214.397 148.143L213.917 148.095C212.045 153.408 210.61 157.618 210.481 158.405C210.173 160.239 209.305 189.692 208.906 203.669H209.386C209.761 189.725 210.644 160.263 210.937 158.487Z" fill="#828282"/>
<path d="M206.066 195.605C206.397 182.414 207.059 161.525 207.986 157.714C208.466 155.712 210.28 150.624 212.426 144.883L215.579 135.23C212.171 144.086 208.264 154.502 207.52 157.598C206.747 160.805 206.162 175.406 205.797 187.838C205.922 190.531 205.994 193.224 206.066 195.605Z" fill="#828282"/>
<path d="M246.193 176.837L245.713 176.842L247.124 203.669H247.604L246.193 176.837Z" fill="#828282"/>
<path d="M229.864 175.983C229.72 168.336 231.026 155.972 231.755 149.727L231.275 149.684C230.546 155.924 229.24 168.322 229.384 175.992C229.538 184.45 229.95 198.423 230.109 203.669H230.589C230.43 198.432 230.018 184.445 229.864 175.983Z" fill="#828282"/>
<path d="M250.24 176.784L249.76 176.789L252.414 203.669H252.899L250.24 176.784Z" fill="#828282"/>
<path d="M241.805 176.89L241.32 176.899L242.487 203.669H242.967L241.805 176.89Z" fill="#828282"/>
<path d="M237.351 158.242C237.345 156.894 237.412 155.546 237.552 154.205C237.527 153.149 237.575 152.092 237.696 151.042C237.888 149.602 238.282 147.37 238.786 144.802C240.053 136.642 241.877 127.253 243.01 121.604L242.53 121.671C240.61 131.309 236.746 151.479 236.895 158.261C237.068 166.205 238.464 196.58 238.815 203.679H239.295C238.925 196.608 237.524 166.186 237.351 158.242Z" fill="#828282"/>
<path d="M234.389 152.78C235.416 147.946 237.053 138.149 238.373 129.932L237.355 133.239C236.15 140.612 234.806 148.503 233.918 152.679C232.248 160.541 233.438 193.935 233.803 203.669H234.283C233.899 193.968 232.728 160.599 234.389 152.78Z" fill="#828282"/>
<path d="M230.122 129.308C230.122 129.308 232.594 137.948 233.266 137.612C233.938 137.276 245.837 122.252 245.952 121.225C246.067 120.197 242.136 115.388 242.136 115.388C241.31 115.046 240.441 114.819 239.554 114.711C238.656 114.711 221.251 117.855 220.805 118.417C220.358 118.978 219.12 122.007 218.222 123.471C217.325 124.935 210.926 131.439 211.709 131.549C212.491 131.66 220.915 128.746 220.915 128.746L223.795 137.453C223.795 137.453 227.866 133.796 228.542 132.898C229.219 132.001 230.122 129.308 230.122 129.308Z" fill="#3ECF58" stroke="#263238" stroke-miterlimit="10"/>
<path d="M220.566 116.578C220.566 116.578 221.474 120.466 222.122 125.391C222.77 130.315 223.806 137.453 223.806 137.453C223.806 137.453 231.458 126.168 231.966 125.779C232.475 125.391 240.266 116.314 240.266 116.314L240.794 103.2C240.794 103.2 237.035 109.815 233.402 112.8C229.768 115.786 220.566 116.578 220.566 116.578Z" fill="white" stroke="#263238" stroke-miterlimit="10"/>
<path d="M233.401 112.8C233.401 112.8 229.734 118.425 226.926 121.056C224.118 123.686 222.126 125.376 222.126 125.376L220.801 118.416L233.401 112.8Z" fill="#263238" stroke="#263238" stroke-miterlimit="10"/>
<path d="M231.611 186.423L226.792 184.901L226.537 187.69L231.611 186.423Z" fill="white" stroke="#263238" stroke-miterlimit="10"/>
<path d="M227.81 181.896L227.383 187.412L226.504 198.836L226.125 203.717H212.642L212.263 198.836L211.384 187.412L210.957 181.896H227.81Z" fill="#3ECF58" stroke="#263238" stroke-miterlimit="10"/>
<path d="M228.995 179.3H209.459V182.924H228.995V179.3Z" fill="white" stroke="#263238" stroke-miterlimit="10"/>
<path d="M227.179 177.72H211.584V179.217H227.179V177.72Z" fill="white" stroke="#263238" stroke-miterlimit="10"/>
<path d="M227.381 187.411H211.383L212.261 198.835H226.503" fill="white"/>
<path d="M227.381 187.411H211.383L212.261 198.835H226.503" stroke="#263238" stroke-miterlimit="10"/>
<path d="M244.547 152.309L254.185 173.76H270.798C270.798 173.76 263.694 141.298 263.44 139.138C263.185 136.978 263.824 131.784 262.172 130.896C260.521 130.008 256.211 128.611 256.211 128.611" fill="white"/>
<path d="M244.547 152.309L254.185 173.76H270.798C270.798 173.76 263.694 141.298 263.44 139.138C263.185 136.978 263.824 131.784 262.172 130.896C260.521 130.008 256.211 128.611 256.211 128.611" stroke="#263238" stroke-miterlimit="10"/>
<path d="M247.969 159.917C247.969 159.917 243.529 157.003 242.262 154.594L247.969 159.917Z" fill="white"/>
<path d="M247.969 159.917C247.969 159.917 243.529 157.003 242.262 154.594" stroke="#263238" stroke-miterlimit="10"/>
<path d="M254.943 177.672C254.943 177.672 241.753 188.328 240.361 188.832C238.969 189.336 237.443 189.849 237.443 189.849C237.443 189.849 232.753 187.565 231.611 186.422C230.468 185.28 219.308 189.465 219.308 189.465L215.377 193.017C215.377 193.017 215.886 194.285 216.899 194.285C217.911 194.285 221.219 191.625 221.219 191.625L226.019 191.371L219.423 195.806L217.647 199.488C217.647 199.488 219.044 200.88 220.187 199.104C220.669 198.265 221.267 197.497 221.963 196.824L228.164 195.225C228.164 195.225 225.097 198.341 224.463 198.72C223.83 199.099 220.623 200.75 221.223 201.446C221.703 202.017 222.217 201.897 222.975 201.643C223.734 201.389 226.561 200.64 226.561 200.64C226.561 200.64 229.729 200.894 230.617 200.894C231.505 200.894 234.678 198.864 234.678 198.864L239.876 195.821C239.876 195.821 258.774 189.48 262.196 187.454C265.619 185.429 271.076 181.617 270.836 180.225C270.596 178.833 254.943 177.672 254.943 177.672Z" fill="white" stroke="#263238" stroke-miterlimit="10"/>
<path d="M226.561 200.64C226.561 200.64 230.492 199.248 231.889 197.727" stroke="#263238" stroke-miterlimit="10"/>
<path d="M252.408 173.362L253.44 175.393L254.074 178.057C254.074 178.057 257.88 178.815 261.303 179.449C264.725 180.082 272.208 181.849 272.208 181.849C272.6 181.453 272.896 180.973 273.072 180.446C273.249 179.918 273.301 179.357 273.226 178.805C272.971 176.885 273.226 172.21 272.463 170.943C271.699 169.676 255.955 170.189 252.408 173.362Z" fill="#3ECF58" stroke="#263238" stroke-miterlimit="10"/>
<path d="M254.248 175.421C254.248 175.421 257.79 173.208 264.77 173.098" stroke="#263238" stroke-miterlimit="10"/>
<path d="M268.557 175.311C269.142 175.44 269.694 175.589 270.193 175.752" stroke="#263238" stroke-miterlimit="10"/>
<path d="M262.109 174.428C262.109 174.428 264.437 174.577 266.871 174.985" stroke="#263238" stroke-miterlimit="10"/>
<path d="M215.52 104.985C214.802 104.984 214.1 105.196 213.503 105.595C212.906 105.993 212.44 106.559 212.164 107.222C211.889 107.885 211.816 108.615 211.956 109.319C212.095 110.023 212.441 110.67 212.948 111.178C213.455 111.686 214.102 112.032 214.806 112.173C215.51 112.313 216.24 112.242 216.903 111.967C217.566 111.693 218.133 111.228 218.532 110.631C218.931 110.034 219.144 109.332 219.144 108.614C219.144 107.653 218.763 106.73 218.083 106.05C217.404 105.37 216.482 104.987 215.52 104.985V104.985ZM215.52 111.264C214.996 111.265 214.483 111.11 214.047 110.82C213.611 110.529 213.27 110.116 213.069 109.631C212.868 109.147 212.815 108.614 212.916 108.1C213.018 107.586 213.27 107.113 213.64 106.742C214.011 106.371 214.483 106.118 214.997 106.016C215.511 105.913 216.044 105.965 216.528 106.166C217.013 106.366 217.427 106.706 217.718 107.142C218.01 107.577 218.165 108.09 218.165 108.614C218.165 109.316 217.887 109.989 217.391 110.486C216.895 110.983 216.222 111.262 215.52 111.264V111.264Z" stroke="#263238" stroke-miterlimit="10"/>
<path d="M212.301 93.8019C212.301 93.8019 213.045 104.088 213.645 107.069C214.245 110.05 220.648 118.551 221.992 119.146C223.335 119.668 224.825 119.668 226.168 119.146C227.507 118.699 236.454 113.031 237.347 110.947C238.24 108.864 239.584 105.6 239.584 105.6C239.584 105.6 243.458 104.703 243.904 102.466C244.167 100.789 244.217 99.0862 244.053 97.3971L244.499 92.0307C244.499 92.0307 242.262 83.0883 236.45 81.4467C230.637 79.8051 222.285 82.6371 218.858 85.6227C215.43 88.6083 212.301 93.8019 212.301 93.8019Z" fill="white" stroke="#263238" stroke-miterlimit="10"/>
<path d="M217.92 93.6006C217.92 93.6006 219.36 95.6262 219.691 97.0614" stroke="#263238" stroke-miterlimit="10"/>
<path d="M218.449 104.904C218.919 105.351 219.476 105.694 220.087 105.911C220.697 106.129 221.346 106.216 221.992 106.167" stroke="#263238" stroke-miterlimit="10"/>
<path d="M220.469 110.3C220.469 110.3 225.192 111.653 228.23 108.024" stroke="#263238" stroke-miterlimit="10"/>
<path d="M224.012 93.2642C224.012 93.2642 227.895 91.493 230.506 93.3506" stroke="#263238" stroke-miterlimit="10"/>
<path d="M217.268 93.178C217.268 93.178 214.988 92.17 213.553 93.8548" stroke="#263238" stroke-miterlimit="10"/>
<path d="M227.474 99.0814C227.847 99.0814 228.15 98.4775 228.15 97.7326C228.15 96.9877 227.847 96.3838 227.474 96.3838C227.1 96.3838 226.797 96.9877 226.797 97.7326C226.797 98.4775 227.1 99.0814 227.474 99.0814Z" fill="#263238"/>
<path d="M216.678 97.2287C216.678 97.9727 216.375 98.5775 216.001 98.5775C215.627 98.5775 215.324 97.9727 215.324 97.2287C215.324 96.4847 215.627 95.8799 216.001 95.8799C216.375 95.8799 216.678 96.4799 216.678 97.2287Z" fill="#263238"/>
<path d="M242.314 104.985C241.597 104.985 240.895 105.198 240.298 105.597C239.702 105.996 239.236 106.562 238.962 107.225C238.687 107.889 238.615 108.618 238.755 109.322C238.895 110.026 239.241 110.673 239.748 111.18C240.256 111.688 240.902 112.033 241.606 112.173C242.31 112.313 243.04 112.241 243.703 111.967C244.366 111.692 244.933 111.227 245.332 110.63C245.73 110.033 245.943 109.332 245.943 108.614C245.943 107.652 245.561 106.729 244.88 106.048C244.2 105.368 243.277 104.985 242.314 104.985ZM242.314 111.264C241.79 111.264 241.278 111.108 240.842 110.817C240.407 110.526 240.067 110.112 239.866 109.628C239.666 109.144 239.613 108.611 239.716 108.097C239.818 107.583 240.07 107.111 240.441 106.741C240.811 106.37 241.283 106.118 241.797 106.015C242.311 105.913 242.844 105.966 243.328 106.166C243.812 106.367 244.226 106.706 244.517 107.142C244.809 107.578 244.964 108.09 244.964 108.614C244.964 109.317 244.685 109.991 244.188 110.488C243.691 110.985 243.017 111.264 242.314 111.264Z" fill="white" stroke="#263238" stroke-miterlimit="10"/>
<path d="M230.933 84.8546L212.299 93.8018C212.299 93.8018 206.338 89.4818 206.338 85.301C206.338 81.1202 216.178 72.341 225.269 71.7362C234.36 71.1314 236.899 73.0802 239.434 75.0146C241.968 76.949 250.018 83.6546 248.976 88.5842C247.935 93.5138 244.056 97.3778 244.056 97.3778C244.056 97.3778 243.907 94.5458 242.266 95.2898C240.624 96.0338 240.922 98.2754 239.731 98.1266C238.541 97.9778 237.811 95.7266 237.811 95.7266C237.811 95.7266 230.338 89.1794 230.933 84.8546Z" fill="#263238" stroke="#263238" stroke-miterlimit="10"/>
<path d="M304.623 160.113H242.055V203.707H304.623V160.113Z" fill="#6E6E6E" stroke="#263238" stroke-linecap="round" stroke-linejoin="round"/>
<path d="M301.45 165.96H245.223V203.707H301.45V165.96Z" fill="#ABABAB" stroke="#263238" stroke-linecap="round" stroke-linejoin="round"/>
<path d="M282.479 184.833H264.191V203.707H282.479V184.833Z" fill="#6E6E6E" stroke="#263238" stroke-linecap="round" stroke-linejoin="round"/>
<path d="M245.223 165.96L242.055 160.113H304.623L301.45 165.96H245.223Z" fill="#D1D1D1" stroke="#263238" stroke-linecap="round" stroke-linejoin="round"/>
<path d="M176.656 207.556H148.35L145.369 172.598H173.675L176.656 207.556Z" fill="white" stroke="#263238" stroke-miterlimit="10"/>
<path d="M170.919 207.556H142.613L145.81 166.276H174.116L170.919 207.556Z" fill="white" stroke="#263238" stroke-miterlimit="10"/>
<path d="M148.862 173.52C148.631 173.529 148.401 173.475 148.199 173.362C148.022 173.25 147.89 173.081 147.825 172.882C147.744 172.641 147.712 172.386 147.729 172.133L148.444 171.998C148.434 172.151 148.442 172.304 148.468 172.454C148.486 172.568 148.534 172.674 148.607 172.762C148.684 172.835 148.785 172.876 148.891 172.876C148.996 172.876 149.098 172.835 149.174 172.762C149.238 172.673 149.275 172.568 149.279 172.459C149.302 172.293 149.268 172.124 149.183 171.979C149.092 171.84 148.984 171.713 148.862 171.6L148.334 171.12C148.193 170.991 148.077 170.836 147.993 170.664C147.906 170.468 147.873 170.253 147.897 170.04C147.902 169.886 147.937 169.734 148.002 169.594C148.066 169.454 148.158 169.328 148.271 169.224C148.515 169.024 148.825 168.921 149.14 168.936C149.318 168.928 149.496 168.961 149.659 169.032C149.787 169.089 149.895 169.183 149.971 169.301C150.047 169.42 150.1 169.552 150.129 169.69C150.161 169.848 150.174 170.009 150.167 170.17L149.462 170.29C149.475 170.165 149.475 170.04 149.462 169.915C149.453 169.82 149.416 169.73 149.356 169.656C149.322 169.623 149.282 169.597 149.237 169.58C149.192 169.564 149.145 169.557 149.097 169.56C149.043 169.557 148.989 169.567 148.94 169.588C148.89 169.608 148.845 169.64 148.809 169.68C148.736 169.763 148.694 169.868 148.689 169.978C148.673 170.106 148.694 170.236 148.751 170.352C148.82 170.463 148.904 170.563 149.001 170.65L149.519 171.13C149.693 171.285 149.839 171.468 149.951 171.672C150.07 171.906 150.118 172.17 150.091 172.43C150.075 172.632 150.011 172.826 149.903 172.997C149.799 173.162 149.653 173.297 149.481 173.39C149.289 173.485 149.076 173.53 148.862 173.52Z" fill="black"/>
<path d="M151.68 173.52C151.415 173.538 151.151 173.47 150.927 173.328C150.751 173.199 150.627 173.012 150.576 172.8C150.518 172.547 150.5 172.286 150.524 172.027L150.648 170.429C150.665 170.156 150.723 169.887 150.821 169.632C150.904 169.416 151.056 169.234 151.253 169.113C151.491 168.98 151.763 168.916 152.036 168.931C152.283 168.917 152.531 168.97 152.751 169.085C152.916 169.188 153.038 169.348 153.092 169.536C153.151 169.758 153.171 169.989 153.149 170.217L153.12 170.592H152.333L152.362 170.208C152.371 170.093 152.371 169.977 152.362 169.862C152.361 169.773 152.331 169.687 152.276 169.617C152.237 169.582 152.191 169.556 152.141 169.541C152.092 169.525 152.039 169.52 151.988 169.526C151.874 169.52 151.762 169.554 151.671 169.622C151.601 169.694 151.551 169.784 151.527 169.881C151.5 170.003 151.483 170.127 151.474 170.251L151.32 172.2C151.305 172.332 151.305 172.466 151.32 172.598C151.329 172.69 151.372 172.776 151.44 172.838C151.52 172.894 151.617 172.921 151.714 172.915C151.767 172.921 151.822 172.915 151.873 172.899C151.924 172.882 151.971 172.855 152.012 172.819C152.078 172.748 152.123 172.66 152.141 172.565C152.165 172.446 152.181 172.326 152.189 172.205L152.223 171.801H153.005V172.157C152.988 172.399 152.933 172.637 152.842 172.862C152.759 173.059 152.619 173.227 152.439 173.342C152.208 173.471 151.945 173.533 151.68 173.52Z" fill="black"/>
<path d="M153.23 173.457L154.474 168.979H155.347L155.894 173.457H155.141L155.04 172.425H154.262L153.998 173.457H153.23ZM154.387 171.902H154.992L154.834 170.025L154.387 171.902Z" fill="black"/>
<path d="M156.322 173.457L156.668 168.979H157.239L158.132 171.532L158.329 168.979H159.005L158.655 173.457H158.113L157.225 170.783L157.018 173.457H156.322Z" fill="black"/>
<path d="M160.689 173.457L161.04 168.979H161.851L161.707 170.855H162.619L162.763 168.979H163.584L163.233 173.457H162.417L162.571 171.436H161.659L161.505 173.457H160.689Z" fill="black"/>
<path d="M163.92 173.457L164.266 168.979H166.147L166.104 169.555H165.043L164.942 170.841H165.778L165.734 171.412H164.899L164.784 172.895H165.854L165.811 173.457H163.92Z" fill="black"/>
<path d="M166.287 173.457L166.638 168.979H167.708C167.965 168.971 168.221 169.007 168.466 169.084C168.656 169.147 168.816 169.279 168.913 169.454C169.018 169.675 169.057 169.922 169.023 170.164C169.012 170.327 168.981 170.488 168.932 170.644C168.894 170.78 168.827 170.907 168.735 171.014C168.641 171.119 168.522 171.2 168.39 171.249L168.846 173.452H168.025L167.641 171.403H167.266L167.108 173.452L166.287 173.457ZM167.305 170.894H167.559C167.691 170.899 167.822 170.875 167.943 170.822C168.042 170.778 168.12 170.7 168.164 170.601C168.217 170.478 168.247 170.346 168.255 170.212C168.284 170.039 168.254 169.861 168.169 169.708C168.111 169.64 168.036 169.588 167.952 169.557C167.868 169.527 167.777 169.519 167.689 169.535H167.391L167.305 170.894Z" fill="black"/>
<path d="M169.379 173.457L169.729 168.979H171.606L171.563 169.555H170.502L170.401 170.841H171.237L171.193 171.412H170.358L170.243 172.895H171.318L171.27 173.457H169.379Z" fill="black"/>
<path d="M150.327 204.782L150.629 200.909H149.914L149.962 200.304H152.194L152.151 200.909H151.445L151.148 204.782H150.327Z" fill="black"/>
<path d="M153.448 204.844C153.188 204.859 152.929 204.797 152.704 204.667C152.525 204.547 152.395 204.366 152.339 204.158C152.274 203.903 152.254 203.638 152.281 203.376L152.411 201.7C152.425 201.432 152.487 201.169 152.593 200.923C152.685 200.719 152.84 200.551 153.035 200.443C153.271 200.318 153.536 200.258 153.803 200.27C154.066 200.254 154.327 200.314 154.557 200.443C154.732 200.553 154.862 200.724 154.921 200.923C154.993 201.175 155.016 201.439 154.989 201.7L154.859 203.38C154.842 203.648 154.779 203.912 154.672 204.158C154.578 204.367 154.424 204.544 154.23 204.667C153.991 204.796 153.72 204.858 153.448 204.844ZM153.496 204.244C153.606 204.25 153.714 204.218 153.803 204.153C153.878 204.09 153.93 204.004 153.952 203.908C153.986 203.799 154.007 203.686 154.014 203.572L154.173 201.508C154.185 201.397 154.185 201.284 154.173 201.172C154.165 201.083 154.126 201 154.062 200.937C153.979 200.872 153.874 200.841 153.769 200.851C153.662 200.845 153.555 200.875 153.467 200.937C153.393 200.997 153.341 201.08 153.318 201.172C153.286 201.282 153.265 201.395 153.256 201.508L153.097 203.572C153.085 203.684 153.085 203.797 153.097 203.908C153.104 204 153.143 204.087 153.208 204.153C153.289 204.218 153.392 204.251 153.496 204.244Z" fill="black"/>
<path d="M156.691 204.782L157.042 200.304H158.357C158.581 200.294 158.803 200.346 159 200.453C159.161 200.553 159.28 200.708 159.336 200.889C159.405 201.111 159.428 201.345 159.403 201.576C159.394 201.824 159.323 202.067 159.197 202.281C159.093 202.455 158.937 202.591 158.751 202.67C158.547 202.757 158.328 202.799 158.107 202.795H157.666L157.512 204.782H156.691ZM157.709 202.219H158.021C158.141 202.223 158.26 202.202 158.371 202.157C158.458 202.114 158.525 202.04 158.559 201.95C158.602 201.828 158.628 201.7 158.635 201.571C158.648 201.44 158.648 201.308 158.635 201.177C158.63 201.132 158.615 201.088 158.591 201.049C158.567 201.01 158.534 200.977 158.496 200.952C158.382 200.895 158.254 200.87 158.127 200.88H157.819L157.709 202.219Z" fill="black"/>
<path d="M159.145 204.782L160.388 200.304H161.281L161.828 204.782H161.069L160.973 203.75H160.177L159.913 204.782H159.145ZM160.297 203.232H160.906L160.748 201.35L160.297 203.232Z" fill="black"/>
<path d="M162.72 204.782L162.854 203.073L162.158 200.304H162.921L163.339 202.08L163.997 200.304H164.741L163.632 203.073L163.497 204.782H162.72Z" fill="black"/>
<path d="M156.37 192.983C156.408 192.441 156.452 191.894 156.495 191.346H157.306C157.306 191.068 157.349 190.799 157.368 190.526H156.557L156.62 189.71H158.256C158.28 189.431 158.3 189.162 158.324 188.894H159.135C159.135 189.167 159.096 189.436 159.072 189.705H159.893C159.936 189.158 159.975 188.615 160.018 188.073H162.471C162.471 188.342 162.428 188.615 162.408 188.889H163.2C163.2 188.615 163.244 188.346 163.263 188.073H162.452L162.514 187.252H160.896C160.94 186.705 160.983 186.167 161.021 185.625H158.568C158.568 185.898 158.525 186.167 158.506 186.441H156.879C156.836 186.988 156.792 187.526 156.749 188.078H157.56C157.56 188.351 157.517 188.62 157.498 188.894H156.687C156.663 189.172 156.644 189.441 156.62 189.71H155.804C155.828 189.436 155.847 189.167 155.866 188.894H153.418C153.418 188.615 153.456 188.351 153.48 188.078H155.928L156.408 181.535H157.229C157.167 182.322 157.109 183.11 157.047 183.897V183.983H157.863C157.901 183.446 157.944 182.903 157.988 182.356H158.804C158.76 182.898 158.717 183.441 158.679 183.993H159.495C159.495 184.262 159.456 184.535 159.432 184.809H163.522C163.522 185.087 163.479 185.351 163.455 185.625H164.276L164.213 186.45H163.402C163.402 186.729 163.359 186.998 163.34 187.271H164.16C164.117 187.814 164.074 188.356 164.031 188.908H164.852C164.808 189.45 164.765 189.993 164.722 190.545H163.92C163.877 191.092 163.839 191.63 163.796 192.182H164.607L164.544 192.998H166.176C166.152 193.271 166.133 193.54 166.114 193.814H163.68L163.551 195.446H162.72C162.744 195.182 162.764 194.913 162.788 194.634H161.146C161.146 194.366 161.189 194.097 161.213 193.818H160.397C160.397 193.545 160.436 193.276 160.46 193.002H162.087L162.149 192.186H158.069L158.007 192.998H156.37V192.983ZM161.463 190.53C161.463 190.262 161.506 189.988 161.525 189.719H160.714C160.69 189.993 160.671 190.262 160.652 190.53H161.463C161.463 190.804 161.424 191.073 161.4 191.346H163.032C163.032 191.073 163.071 190.804 163.095 190.53H161.463ZM159.84 190.559H159.029C159.029 190.833 158.986 191.102 158.967 191.37H159.778C159.783 191.073 159.802 190.809 159.84 190.559ZM161.799 186.46H162.605C162.605 186.186 162.648 185.918 162.668 185.654H161.861C161.823 185.898 161.804 186.167 161.784 186.436L161.799 186.46Z" fill="#263238"/>
<path d="M149.707 183.983C149.857 182.063 150.005 180.159 150.149 178.271H155.865C155.715 180.172 155.568 182.076 155.424 183.983H149.707ZM150.907 179.087L150.59 183.167H154.67L154.987 179.087H150.907Z" fill="#263238"/>
<path d="M166.873 183.988H161.156C161.305 182.068 161.449 180.182 161.598 178.271H167.315C167.167 180.172 167.02 182.078 166.873 183.988ZM166.436 179.087H162.356L162.039 183.167H166.119L166.436 179.087Z" fill="#263238"/>
<path d="M149.28 189.715H154.996L154.56 195.432H148.848C148.976 193.531 149.12 191.625 149.28 189.715ZM154.08 190.56H150L149.683 194.64H153.763L154.08 190.56Z" fill="#263238"/>
<path d="M157.253 181.54C157.296 180.998 157.339 180.455 157.382 179.903H156.566C156.61 179.356 156.648 178.819 156.691 178.271H160.771C160.728 178.814 160.69 179.351 160.646 179.899H159.84C159.816 180.172 159.797 180.441 159.773 180.719H160.584C160.541 181.267 160.498 181.804 160.459 182.351H159.643C159.643 182.083 159.686 181.814 159.706 181.54H158.88C158.904 181.267 158.923 180.998 158.942 180.724H158.126C158.126 180.988 158.088 181.257 158.064 181.535H157.243L157.253 181.54ZM158.213 179.899H159.024C159.024 179.625 159.067 179.356 159.086 179.087H158.28C158.242 179.356 158.222 179.625 158.198 179.899H158.213Z" fill="#263238"/>
<path d="M153.663 185.625C153.663 185.894 153.624 186.163 153.6 186.441H155.232C155.232 186.715 155.194 186.983 155.17 187.257H152.722C152.679 187.804 152.64 188.347 152.597 188.894H149.328L149.458 187.267H150.264C150.264 187.535 150.226 187.799 150.202 188.073H151.843L152.031 185.625H153.663Z" fill="#263238"/>
<path d="M156.366 192.983C156.366 193.252 156.327 193.521 156.303 193.799H157.119C157.119 194.073 157.076 194.342 157.057 194.615H157.873C157.873 194.894 157.83 195.163 157.81 195.436H155.367C155.43 194.62 155.492 193.809 155.554 192.983H156.366Z" fill="#263238"/>
<path d="M152.03 185.626H150.398C150.374 185.899 150.355 186.168 150.336 186.442H149.52C149.563 185.899 149.601 185.362 149.644 184.814H152.092L152.03 185.626Z" fill="#263238"/>
<path d="M166.619 187.258H165.807C165.851 186.715 165.889 186.178 165.932 185.63H165.121C165.145 185.352 165.164 185.083 165.188 184.81H166.811L166.619 187.258Z" fill="#263238"/>
<path d="M153.668 185.626L153.73 184.814H155.362C155.338 185.083 155.319 185.347 155.295 185.626H153.668Z" fill="#263238"/>
<path d="M164.861 188.899L164.924 188.083H165.735C165.735 188.352 165.697 188.621 165.673 188.894H164.861V188.899Z" fill="#263238"/>
<path d="M165.6 189.715H166.406C166.406 189.988 166.368 190.252 166.344 190.526H165.537C165.6 190.257 165.6 189.993 165.6 189.715Z" fill="#263238"/>
<path d="M159.52 183.993L159.582 183.177H160.393C160.393 183.446 160.35 183.714 160.331 183.988H159.52V183.993Z" fill="#263238"/>
<path d="M156.48 191.347H155.664C155.688 191.078 155.707 190.81 155.731 190.531H156.542C156.518 190.805 156.499 191.078 156.48 191.352V191.347Z" fill="#263238"/>
<path d="M164.607 192.168C164.631 191.899 164.651 191.63 164.67 191.356H165.486C165.462 191.62 165.443 191.889 165.423 192.168H164.607Z" fill="#263238"/>
<path d="M164.232 186.446H165.043C165.043 186.715 165.005 186.984 164.981 187.262H164.16C164.16 186.989 164.203 186.715 164.223 186.441L164.232 186.446Z" fill="#263238"/>
<path d="M159.508 194.616H158.697C158.697 194.347 158.74 194.078 158.76 193.81H159.571C159.547 194.074 159.528 194.342 159.508 194.616Z" fill="#263238"/>
<path d="M161.147 194.62C161.147 194.889 161.104 195.158 161.085 195.431H160.273C160.273 195.163 160.312 194.899 160.336 194.62H161.147Z" fill="#263238"/>
<path d="M165.984 195.436H165.178C165.178 195.163 165.216 194.899 165.24 194.625H166.047C166.027 194.879 166.008 195.163 165.984 195.436Z" fill="#263238"/>
<path d="M160.018 188.078H159.207C159.207 187.809 159.245 187.54 159.269 187.267H160.081C160.081 187.535 160.037 187.809 160.018 188.078Z" fill="#263238"/>
<path d="M153.912 182.351H151.469C151.531 181.535 151.594 180.724 151.661 179.908H154.104C154.042 180.719 153.979 181.531 153.912 182.351Z" fill="#263238"/>
<path d="M162.918 182.351L163.105 179.903H165.553L165.361 182.351H162.918Z" fill="#263238"/>
<path d="M150.586 193.8L150.773 191.352H153.216L153.029 193.8H150.586Z" fill="#263238"/>
<path d="M152.674 176.332H149.098L148.791 180.282" stroke="#3ECF58" stroke-miterlimit="10"/>
<path d="M165.691 176.332H169.272L168.965 180.282" stroke="#3ECF58" stroke-miterlimit="10"/>
<path d="M151.065 197.131H147.484L147.792 193.181" stroke="#3ECF58" stroke-miterlimit="10"/>
<path d="M164.084 197.131H167.66L167.967 193.181" stroke="#3ECF58" stroke-miterlimit="10"/>
<path d="M114.844 164.246C114.844 164.246 118.684 159.801 119.366 159.47C120.047 159.139 129.038 154.742 129.038 154.742L126.532 167.467L112.766 173.865L114.844 164.246Z" fill="white" stroke="#263238" stroke-miterlimit="10"/>
<path d="M144.981 141.171L132.756 138.91C131.76 138.725 130.804 139.383 130.62 140.379L125.213 169.61C125.028 170.605 125.686 171.562 126.682 171.746L138.907 174.008C139.902 174.192 140.859 173.534 141.043 172.538L146.45 143.308C146.634 142.312 145.977 141.355 144.981 141.171Z" fill="white" stroke="#263238" stroke-miterlimit="10"/>
<path d="M134.314 158.923L134.529 157.781L135.043 157.881C135.082 157.685 135.115 157.497 135.154 157.31L134.64 157.209C134.674 157.017 134.712 156.825 134.746 156.633L135.782 156.83C135.821 156.638 135.854 156.451 135.888 156.264L136.406 156.36C136.373 156.552 136.334 156.739 136.301 156.926L136.819 157.022L137.03 155.885H137.097L138.586 156.163C138.547 156.355 138.513 156.542 138.475 156.734L138.989 156.83C139.027 156.638 139.061 156.451 139.099 156.264L138.581 156.168C138.619 155.976 138.653 155.789 138.691 155.592L137.654 155.395L137.87 154.257L136.32 153.984C136.282 154.176 136.248 154.363 136.209 154.555L135.182 154.358L134.966 155.501L135.475 155.597C135.441 155.789 135.403 155.976 135.369 156.168L134.856 156.072C134.818 156.264 134.784 156.451 134.746 156.643L134.232 156.542C134.265 156.35 134.299 156.163 134.337 155.971L132.787 155.678C132.821 155.486 132.859 155.299 132.893 155.107L134.443 155.4L135.307 150.835L135.826 150.931C135.72 151.478 135.619 152.03 135.514 152.577V152.64L136.027 152.736L136.243 151.603L136.762 151.699L136.546 152.841L137.064 152.937C137.025 153.125 136.992 153.312 136.954 153.509L139.541 153.989C139.507 154.181 139.469 154.368 139.435 154.555L139.954 154.656C139.915 154.853 139.882 155.04 139.843 155.232L139.329 155.136C139.291 155.328 139.257 155.515 139.224 155.707L139.737 155.808L139.522 156.95L140.04 157.051C139.968 157.425 139.901 157.805 139.824 158.189L139.31 158.093L139.094 159.235L139.613 159.336C139.579 159.528 139.546 159.715 139.507 159.907L140.539 160.104C140.506 160.296 140.467 160.483 140.434 160.675L138.883 160.377L138.667 161.52L138.149 161.424C138.187 161.237 138.221 161.049 138.259 160.853L137.222 160.656C137.256 160.469 137.294 160.277 137.328 160.085L136.814 159.989C136.853 159.797 136.886 159.609 136.92 159.417L137.952 159.609C137.99 159.417 138.024 159.23 138.057 159.043L135.48 158.563C135.442 158.75 135.408 158.937 135.369 159.129L134.333 158.933L134.314 158.923ZM137.741 157.8C137.779 157.613 137.813 157.421 137.851 157.233L137.338 157.133C137.299 157.325 137.266 157.512 137.227 157.699L137.746 157.8C137.707 157.987 137.673 158.179 137.635 158.366L138.667 158.563C138.701 158.371 138.739 158.184 138.773 157.997L137.741 157.8ZM136.704 157.608L136.195 157.507C136.157 157.699 136.123 157.886 136.085 158.073L136.598 158.169C136.632 157.982 136.67 157.795 136.704 157.608ZM138.283 154.944L138.797 155.04C138.835 154.848 138.869 154.661 138.902 154.473L138.394 154.377C138.355 154.56 138.322 154.752 138.283 154.944Z" fill="#263238"/>
<path d="M130.848 151.756C131.1 150.425 131.352 149.096 131.601 147.768L135.22 148.454C134.966 149.784 134.74 151.108 134.462 152.443L130.848 151.756ZM132.014 148.435C131.832 149.395 131.654 150.355 131.476 151.286L134.054 151.766C134.236 150.806 134.414 149.846 134.596 148.915L132.014 148.435Z" fill="#263238"/>
<path d="M141.709 153.816L138.09 153.12C138.344 151.785 138.594 150.46 138.843 149.126L142.463 149.812C142.208 151.156 141.959 152.481 141.709 153.816ZM141.839 150.297L139.256 149.817C139.074 150.777 138.895 151.728 138.719 152.668L141.301 153.148C141.48 152.198 141.659 151.248 141.839 150.297Z" fill="#263238"/>
<path d="M130.079 155.76L133.693 156.446C133.444 157.776 133.189 159.105 132.94 160.435L129.32 159.753C129.599 158.424 129.839 157.094 130.079 155.76ZM133.069 156.921L130.487 156.441C130.304 157.401 130.125 158.35 129.949 159.288L132.527 159.768C132.724 158.817 132.901 157.872 133.084 156.921H133.069Z" fill="#263238"/>
<path d="M135.839 150.932L136.055 149.789L135.541 149.693C135.613 149.309 135.685 148.935 135.757 148.556L138.339 149.036L138.123 150.173L137.61 150.077C137.576 150.269 137.538 150.456 137.504 150.648L138.013 150.744L137.797 151.887L137.283 151.786C137.322 151.599 137.355 151.412 137.394 151.22L136.875 151.124L136.981 150.552L136.467 150.456C136.429 150.644 136.395 150.831 136.357 151.023L135.839 150.927V150.932ZM136.573 149.885L137.087 149.981C137.125 149.789 137.159 149.602 137.192 149.415L136.683 149.319L136.573 149.885Z" fill="#263238"/>
<path d="M133.214 153.394C133.18 153.581 133.142 153.768 133.108 153.965L134.14 154.162C134.106 154.349 134.068 154.536 134.034 154.728L132.484 154.436L132.268 155.578L130.199 155.184L130.415 154.052L130.929 154.148L130.823 154.709L131.86 154.906C131.966 154.34 132.076 153.768 132.182 153.197L133.218 153.394H133.214Z" fill="#263238"/>
<path d="M134.314 158.923C134.28 159.11 134.242 159.302 134.208 159.494L134.722 159.59C134.688 159.782 134.65 159.97 134.616 160.162L135.13 160.258C135.096 160.454 135.058 160.642 135.024 160.829L133.479 160.536C133.584 159.97 133.69 159.403 133.8 158.827L134.314 158.923Z" fill="#263238"/>
<path d="M132.181 153.197L131.149 153C131.111 153.192 131.077 153.379 131.039 153.571L130.525 153.471L130.741 152.338L132.287 152.631C132.253 152.818 132.215 153.01 132.181 153.197Z" fill="#263238"/>
<path d="M141.277 156.101L140.763 156.005C140.835 155.626 140.903 155.247 140.975 154.867L140.461 154.767C140.499 154.575 140.533 154.387 140.567 154.2L141.599 154.392C141.488 154.963 141.383 155.52 141.277 156.101Z" fill="#263238"/>
<path d="M133.218 153.394C133.251 153.206 133.285 153.019 133.323 152.827L134.355 153.024C134.317 153.206 134.283 153.398 134.245 153.59L133.213 153.394H133.218Z" fill="#263238"/>
<path d="M140.03 157.052C140.064 156.864 140.097 156.672 140.136 156.48L140.649 156.581C140.616 156.768 140.577 156.956 140.544 157.148L140.025 157.052H140.03Z" fill="#263238"/>
<path d="M140.438 157.724L140.951 157.82C140.913 158.007 140.879 158.194 140.846 158.386L140.332 158.285C140.366 158.098 140.404 157.92 140.438 157.724Z" fill="#263238"/>
<path d="M137.055 152.937L137.16 152.371L137.679 152.467C137.64 152.654 137.607 152.841 137.568 153.033L137.055 152.937Z" fill="#263238"/>
<path d="M134.529 157.78L134.016 157.684C134.049 157.492 134.088 157.305 134.121 157.113L134.64 157.214C134.601 157.406 134.563 157.598 134.529 157.785V157.78Z" fill="#263238"/>
<path d="M139.599 159.36C139.632 159.168 139.666 158.981 139.704 158.789L140.218 158.89C140.184 159.072 140.146 159.259 140.112 159.456L139.594 159.355L139.599 159.36Z" fill="#263238"/>
<path d="M139.832 155.242L140.346 155.338C140.312 155.525 140.279 155.712 140.24 155.909L139.727 155.808L139.832 155.232V155.242Z" fill="#263238"/>
<path d="M136.166 160.454L135.652 160.358C135.686 160.171 135.724 159.984 135.758 159.792L136.272 159.888C136.238 160.075 136.2 160.262 136.166 160.454Z" fill="#263238"/>
<path d="M137.202 160.652C137.164 160.844 137.13 161.031 137.092 161.223L136.578 161.127C136.617 160.94 136.65 160.752 136.689 160.556L137.202 160.656V160.652Z" fill="#263238"/>
<path d="M140.198 161.813L139.68 161.712C139.713 161.525 139.752 161.338 139.785 161.15L140.299 161.246C140.265 161.434 140.232 161.621 140.198 161.813Z" fill="#263238"/>
<path d="M137.029 155.89L136.516 155.794C136.554 155.602 136.588 155.415 136.626 155.228L137.14 155.324C137.101 155.511 137.068 155.703 137.029 155.89Z" fill="#263238"/>
<path d="M133.645 151.109L132.1 150.816C132.205 150.245 132.311 149.679 132.421 149.107L133.967 149.4C133.861 149.967 133.751 150.538 133.645 151.109Z" fill="#263238"/>
<path d="M139.344 152.184C139.449 151.613 139.56 151.047 139.665 150.48L141.211 150.773C141.105 151.34 140.995 151.906 140.889 152.477L139.344 152.184Z" fill="#263238"/>
<path d="M130.588 158.808C130.693 158.237 130.799 157.671 130.909 157.1L132.455 157.392C132.349 157.959 132.239 158.53 132.133 159.101L130.588 158.808Z" fill="#263238"/>
<path d="M133.363 146.703L131.097 146.271L130.574 149.031" stroke="#3ECF58" stroke-miterlimit="10"/>
<path d="M141.6 148.263L143.86 148.69L143.342 151.445" stroke="#3ECF58" stroke-miterlimit="10"/>
<path d="M130.612 161.222L128.352 160.79L128.87 158.035" stroke="#3ECF58" stroke-miterlimit="10"/>
<path d="M138.85 162.782L141.115 163.209L141.638 160.454" stroke="#3ECF58" stroke-miterlimit="10"/>
<path d="M146.04 145.603L146.463 143.304C146.508 143.067 146.505 142.824 146.456 142.588C146.406 142.352 146.31 142.129 146.174 141.93C146.037 141.731 145.863 141.562 145.66 141.431C145.458 141.3 145.231 141.211 144.994 141.168L132.768 138.907C132.29 138.819 131.797 138.924 131.396 139.2C130.996 139.475 130.721 139.898 130.632 140.376L130.205 142.675L146.04 145.603Z" fill="#263238" stroke="#263238" stroke-miterlimit="10"/>
<path d="M125.491 168.188L125.227 169.603C125.184 169.842 125.188 170.087 125.239 170.324C125.291 170.561 125.389 170.786 125.528 170.985C125.666 171.184 125.843 171.353 126.048 171.484C126.252 171.614 126.481 171.703 126.72 171.744L138.945 174.005C139.182 174.049 139.426 174.045 139.661 173.995C139.897 173.944 140.121 173.848 140.319 173.711C140.517 173.574 140.687 173.4 140.818 173.197C140.948 172.995 141.038 172.769 141.081 172.531L141.345 171.091L125.491 168.188Z" fill="#263238" stroke="#263238" stroke-miterlimit="10"/>
<path d="M121.516 162.6C121.516 162.6 125.797 163.238 127.117 163.483C128.437 163.728 133.732 162.129 134.183 162.969C134.634 163.809 133.977 164.889 132.743 165.739C131.509 166.588 126.503 167.467 126.503 167.467C125.427 169.19 123.794 170.494 121.876 171.163C118.818 172.123 113.994 171.979 113.994 171.979" fill="white"/>
<path d="M121.516 162.6C121.516 162.6 125.797 163.238 127.117 163.483C128.437 163.728 133.732 162.129 134.183 162.969C134.634 163.809 133.977 164.889 132.743 165.739C131.509 166.588 126.503 167.467 126.503 167.467C125.427 169.19 123.794 170.494 121.876 171.163C118.818 172.123 113.994 171.979 113.994 171.979" stroke="#263238" stroke-miterlimit="10"/>
<path d="M51.6282 220.416H123.628C123.801 218.069 124.42 205.651 119.865 188.769C114.796 169.982 114.796 151.809 114.796 151.809C114.796 151.809 118.228 144.057 113.903 137.644C109.579 131.232 103.895 129.412 103.895 129.412C103.895 129.412 72.7578 119.755 66.9354 120.499C66.9354 120.499 52.3242 132.873 51.1338 133.622C49.9434 134.371 46.6602 139.435 46.6602 142.416C46.6602 145.396 52.473 187.291 53.2218 192.657C53.913 197.587 51.945 217.329 51.6282 220.416Z" fill="#3ECF58" stroke="#263238" stroke-miterlimit="10"/>
<path d="M61.5742 147.024C61.5742 147.024 67.387 169.685 73.5022 177.884" stroke="#263238" stroke-miterlimit="10"/>
<path d="M67.6797 170.28C67.6797 170.28 71.4045 178.032 75.5805 181.613" stroke="#263238" stroke-miterlimit="10"/>
<path d="M120.114 82.0803C120.114 82.0803 119.965 91.6803 119.053 92.8371C118.141 93.9939 116.711 95.7507 116.793 96.7155C116.874 97.6803 118.929 103.642 119.034 104.472C119.14 105.303 115.703 106.92 115.703 106.92C115.703 106.92 110.087 118.119 109.511 118.954C108.935 119.789 107.591 119.659 106.05 119.347C104.509 119.035 101.73 117.264 101.73 117.264L96.3205 127.421C96.3205 127.421 87.5941 120.264 83.6629 117.586C79.7317 114.907 74.8789 112.162 74.8789 112.162L79.9525 105.053C79.9525 105.053 82.3189 102.005 82.9429 96.8499C83.5669 91.6947 84.9397 84.7923 95.7445 79.5027C106.549 74.2131 117.172 79.8579 120.114 82.0803Z" fill="white" stroke="#263238" stroke-miterlimit="10"/>
<path d="M112.175 81.8352C112.175 81.8352 112.727 86.5488 111.945 87.7488C111.163 88.9488 104.471 89.9136 104.447 90.72C104.423 91.5264 104.447 95.5872 103.228 95.4864C102.009 95.3856 101.716 95.5872 101.38 95.2512C101.044 94.9152 101.716 91.5264 98.9034 92.0496C96.0906 92.5728 93.489 96.792 93.5418 99.2496C93.5946 101.707 95.8122 103.488 95.8122 103.488C95.8122 103.488 95.577 104.664 90.945 106.176C86.313 107.688 80.841 106.598 79.929 105.062C79.017 103.526 76.3242 83.7648 75.753 78.5088C75.1818 73.2528 79.545 63.5616 87.1722 61.2912C94.7994 59.0208 103.756 60.2688 103.756 60.2688C103.756 60.2688 108.364 57.5328 112.396 59.1456C116.428 60.7584 117.345 65.544 117.345 65.544C117.345 65.544 124.843 65.28 126.854 70.1472C128.865 75.0144 127.377 80.4048 124.751 82.7232C122.126 85.0416 117.59 82.6512 115.583 81.8448C115.051 81.5939 114.469 81.4629 113.881 81.4613C113.292 81.4596 112.71 81.5873 112.175 81.8352Z" fill="#263238" stroke="#263238" stroke-miterlimit="10"/>
<path d="M119.04 92.8228C119.04 92.8228 116.851 90.2164 114.432 92.8516" stroke="#263238" stroke-miterlimit="10"/>
<path d="M115.68 96.2741C115.526 97.0277 115.084 97.5749 114.691 97.4981C114.297 97.4213 114.096 96.7397 114.244 95.9861C114.393 95.2325 114.84 94.6853 115.233 94.7621C115.627 94.8389 115.809 95.5205 115.68 96.2741Z" fill="#263238"/>
<path d="M112.32 109.618C112.32 109.618 110.578 110.218 109.143 107.899" stroke="#263238" stroke-miterlimit="10"/>
<path d="M101.725 117.25C100.598 116.148 99.6649 114.865 98.9649 113.453C98.0049 111.37 97.0449 109.416 97.0449 109.416C97.0449 109.416 97.1505 117.019 97.4385 118.973C97.6798 120.379 98.0379 121.763 98.5089 123.11L101.725 117.25Z" fill="#263238" stroke="#263238" stroke-miterlimit="10"/>
<path d="M71.1074 115.061C71.1074 115.061 72.8306 111.874 73.7618 111.745C74.693 111.615 89.4242 115.325 92.7458 117.188C96.0674 119.05 99.3842 123.692 99.3842 123.692L71.1074 115.061Z" fill="white" stroke="#263238" stroke-miterlimit="10"/>
<path d="M70.5601 113.865C70.5601 113.865 78.9217 115.992 87.8161 118.665C96.7105 121.339 100.43 124.108 100.963 124.905C101.496 125.702 103.882 129.417 103.882 129.417C103.882 129.417 96.4465 127.977 82.5073 124.771C68.5681 121.564 65.7793 121.185 65.7793 121.185C65.7793 121.185 69.9121 114.926 70.5601 113.865Z" fill="#3ECF58" stroke="#263238" stroke-miterlimit="10"/>
<path d="M86.4707 151.944C86.4707 151.944 91.8371 182.664 92.2835 186.235C92.7299 189.806 91.8371 199.195 92.2835 206.51C92.622 211.215 93.4113 215.876 94.6403 220.43H121.04C120.82 219.192 118.64 206.779 118.228 200.409C117.776 193.689 117.628 168.206 116.735 161.947C115.842 155.688 116.159 151.795 116.159 151.795C116.159 151.795 118.079 141.806 115.861 137.035C113.644 132.264 104.677 130.795 102.901 130.622" fill="#3ECF58"/>
<path d="M86.4707 151.944C86.4707 151.944 91.8371 182.664 92.2835 186.235C92.7299 189.806 91.8371 199.195 92.2835 206.51C92.622 211.215 93.4113 215.876 94.6403 220.43H121.04C120.82 219.192 118.64 206.779 118.228 200.409C117.776 193.689 117.628 168.206 116.735 161.947C115.842 155.688 116.159 151.795 116.159 151.795C116.159 151.795 118.079 141.806 115.861 137.035C113.644 132.264 104.677 130.795 102.901 130.622" stroke="#263238" stroke-miterlimit="10"/>
<path d="M99.1051 135.087C99.1051 135.087 91.6795 140.669 89.8027 151.834L99.1051 135.087Z" fill="#3ECF58"/>
<path d="M99.1051 135.087C99.1051 135.087 91.6795 140.669 89.8027 151.834" stroke="#263238" stroke-miterlimit="10"/>
</svg>
