<svg width="300" height="300" viewBox="0 0 300 300" fill="none" xmlns="http://www.w3.org/2000/svg">
<circle cx="147.656" cy="128.906" r="53.9062" fill="#3ECF58"/>
<path d="M57.4219 159.375C56.6094 159.375 55.9375 159.109 55.4062 158.578C54.875 158.016 54.6094 157.328 54.6094 156.516V137.156C54.6094 136.344 54.875 135.672 55.4062 135.141C55.9375 134.578 56.6094 134.297 57.4219 134.297C58.2344 134.297 58.9063 134.578 59.4375 135.141C59.9688 135.672 60.2344 136.344 60.2344 137.156V141.562L59.9062 138.422C60.25 137.672 60.6875 137.016 61.2188 136.453C61.7813 135.859 62.4063 135.375 63.0938 135C63.7813 134.594 64.5156 134.297 65.2969 134.109C66.0781 133.922 66.8594 133.828 67.6406 133.828C68.5781 133.828 69.3594 134.094 69.9844 134.625C70.6406 135.156 70.9688 135.781 70.9688 136.5C70.9688 137.531 70.7031 138.281 70.1719 138.75C69.6406 139.187 69.0625 139.406 68.4375 139.406C67.8438 139.406 67.2969 139.297 66.7969 139.078C66.3281 138.859 65.7813 138.75 65.1563 138.75C64.5938 138.75 64.0156 138.891 63.4219 139.172C62.8594 139.422 62.3281 139.828 61.8281 140.391C61.3594 140.953 60.9687 141.656 60.6562 142.5C60.375 143.312 60.2344 144.281 60.2344 145.406V156.516C60.2344 157.328 59.9688 158.016 59.4375 158.578C58.9063 159.109 58.2344 159.375 57.4219 159.375Z" fill="#00360A"/>
<path d="M85.6937 159.844C83.0375 159.844 80.725 159.297 78.7562 158.203C76.8187 157.078 75.3187 155.562 74.2562 153.656C73.225 151.75 72.7094 149.594 72.7094 147.187C72.7094 144.375 73.2719 141.984 74.3969 140.016C75.5531 138.016 77.0531 136.484 78.8969 135.422C80.7406 134.359 82.6937 133.828 84.7562 133.828C86.35 133.828 87.85 134.156 89.2562 134.812C90.6937 135.469 91.9594 136.375 93.0531 137.531C94.1469 138.656 95.0062 139.969 95.6312 141.469C96.2875 142.969 96.6156 144.562 96.6156 146.25C96.5844 147 96.2875 147.609 95.725 148.078C95.1625 148.547 94.5062 148.781 93.7562 148.781H75.85L74.4437 144.094H91.6469L90.6156 145.031V143.766C90.5531 142.859 90.225 142.047 89.6312 141.328C89.0687 140.609 88.35 140.047 87.475 139.641C86.6312 139.203 85.725 138.984 84.7562 138.984C83.8187 138.984 82.9437 139.109 82.1312 139.359C81.3187 139.609 80.6156 140.031 80.0219 140.625C79.4281 141.219 78.9594 142.016 78.6156 143.016C78.2719 144.016 78.1 145.281 78.1 146.812C78.1 148.5 78.4437 149.937 79.1312 151.125C79.85 152.281 80.7562 153.172 81.85 153.797C82.975 154.391 84.1625 154.687 85.4125 154.687C86.5687 154.687 87.4906 154.594 88.1781 154.406C88.8656 154.219 89.4125 154 89.8187 153.75C90.2562 153.469 90.6469 153.234 90.9906 153.047C91.5531 152.766 92.0843 152.625 92.5843 152.625C93.2718 152.625 93.8344 152.859 94.2719 153.328C94.7406 153.797 94.975 154.344 94.975 154.969C94.975 155.812 94.5375 156.578 93.6625 157.266C92.85 157.953 91.7094 158.562 90.2406 159.094C88.7719 159.594 87.2562 159.844 85.6937 159.844Z" fill="#00360A"/>
<path d="M116.061 126.562C118.311 126.562 120.311 126.984 122.061 127.828C123.811 128.672 125.28 129.859 126.468 131.391C127.686 132.891 128.593 134.641 129.186 136.641C129.811 138.609 130.124 140.719 130.124 142.969C130.124 146 129.577 148.766 128.483 151.266C127.39 153.734 125.796 155.703 123.702 157.172C121.64 158.641 119.093 159.375 116.061 159.375H104.858C104.046 159.375 103.358 159.109 102.796 158.578C102.265 158.016 101.999 157.328 101.999 156.516V129.422C101.999 128.609 102.265 127.938 102.796 127.406C103.358 126.844 104.046 126.562 104.858 126.562H116.061ZM115.593 153.984C117.561 153.984 119.171 153.484 120.421 152.484C121.671 151.453 122.577 150.109 123.14 148.453C123.733 146.766 124.03 144.937 124.03 142.969C124.03 141.5 123.858 140.109 123.515 138.797C123.202 137.453 122.702 136.281 122.015 135.281C121.327 134.25 120.452 133.437 119.39 132.844C118.327 132.25 117.061 131.953 115.593 131.953H107.39L107.858 131.531V154.5L107.577 153.984H115.593Z" fill="#00360A"/>
<path d="M147.217 159.844C144.561 159.844 142.248 159.297 140.28 158.203C138.342 157.078 136.842 155.562 135.78 153.656C134.748 151.75 134.233 149.594 134.233 147.187C134.233 144.375 134.795 141.984 135.92 140.016C137.077 138.016 138.577 136.484 140.42 135.422C142.264 134.359 144.217 133.828 146.28 133.828C147.873 133.828 149.373 134.156 150.78 134.812C152.217 135.469 153.483 136.375 154.577 137.531C155.67 138.656 156.53 139.969 157.155 141.469C157.811 142.969 158.139 144.562 158.139 146.25C158.108 147 157.811 147.609 157.248 148.078C156.686 148.547 156.03 148.781 155.28 148.781H137.373L135.967 144.094H153.17L152.139 145.031V143.766C152.077 142.859 151.748 142.047 151.155 141.328C150.592 140.609 149.873 140.047 148.998 139.641C148.155 139.203 147.248 138.984 146.28 138.984C145.342 138.984 144.467 139.109 143.655 139.359C142.842 139.609 142.139 140.031 141.545 140.625C140.952 141.219 140.483 142.016 140.139 143.016C139.795 144.016 139.623 145.281 139.623 146.812C139.623 148.5 139.967 149.937 140.655 151.125C141.373 152.281 142.28 153.172 143.373 153.797C144.498 154.391 145.686 154.687 146.936 154.687C148.092 154.687 149.014 154.594 149.702 154.406C150.389 154.219 150.936 154 151.342 153.75C151.78 153.469 152.17 153.234 152.514 153.047C153.077 152.766 153.608 152.625 154.108 152.625C154.795 152.625 155.358 152.859 155.795 153.328C156.264 153.797 156.498 154.344 156.498 154.969C156.498 155.812 156.061 156.578 155.186 157.266C154.373 157.953 153.233 158.562 151.764 159.094C150.295 159.594 148.78 159.844 147.217 159.844Z" fill="#00360A"/>
<path d="M166.475 159.375C165.6 159.375 164.882 159.109 164.319 158.578C163.788 158.016 163.522 157.328 163.522 156.516V129.422C163.522 128.609 163.788 127.938 164.319 127.406C164.882 126.844 165.569 126.562 166.382 126.562H181.616C182.429 126.562 183.1 126.828 183.632 127.359C184.194 127.859 184.475 128.516 184.475 129.328C184.475 130.016 184.194 130.625 183.632 131.156C183.1 131.687 182.429 131.953 181.616 131.953H168.96L169.382 131.391V140.812L169.054 140.203H179.507C180.319 140.203 180.991 140.469 181.522 141C182.085 141.5 182.366 142.156 182.366 142.969C182.366 143.656 182.085 144.266 181.522 144.797C180.991 145.328 180.319 145.594 179.507 145.594H168.96L169.382 145.172V156.516C169.382 157.328 169.085 158.016 168.491 158.578C167.929 159.109 167.257 159.375 166.475 159.375Z" fill="#00360A"/>
<path d="M194.672 156.516C194.672 157.328 194.406 158.016 193.875 158.578C193.344 159.109 192.672 159.375 191.859 159.375C191.047 159.375 190.375 159.109 189.844 158.578C189.313 158.016 189.047 157.328 189.047 156.516V137.156C189.047 136.344 189.313 135.672 189.844 135.141C190.375 134.578 191.047 134.297 191.859 134.297C192.672 134.297 193.344 134.578 193.875 135.141C194.406 135.672 194.672 136.344 194.672 137.156V156.516ZM191.813 131.25C190.75 131.25 190 131.078 189.563 130.734C189.125 130.391 188.906 129.781 188.906 128.906V128.016C188.906 127.109 189.141 126.5 189.609 126.188C190.109 125.844 190.859 125.672 191.859 125.672C192.953 125.672 193.719 125.844 194.156 126.188C194.594 126.531 194.812 127.141 194.812 128.016V128.906C194.812 129.812 194.578 130.437 194.109 130.781C193.641 131.094 192.875 131.25 191.813 131.25Z" fill="#00360A"/>
<path d="M213.859 133.828C216.172 133.828 217.922 134.313 219.109 135.281C220.328 136.25 221.156 137.547 221.594 139.172C222.062 140.766 222.297 142.547 222.297 144.516V156.516C222.297 157.328 222.031 158.016 221.5 158.578C220.969 159.109 220.297 159.375 219.484 159.375C218.672 159.375 218 159.109 217.469 158.578C216.937 158.016 216.672 157.328 216.672 156.516V144.516C216.672 143.484 216.531 142.562 216.25 141.75C216 140.906 215.531 140.234 214.844 139.734C214.156 139.234 213.172 138.984 211.89 138.984C210.64 138.984 209.578 139.234 208.703 139.734C207.859 140.234 207.203 140.906 206.734 141.75C206.297 142.562 206.078 143.484 206.078 144.516V156.516C206.078 157.328 205.812 158.016 205.281 158.578C204.75 159.109 204.078 159.375 203.265 159.375C202.453 159.375 201.781 159.109 201.25 158.578C200.719 158.016 200.453 157.328 200.453 156.516V137.156C200.453 136.344 200.719 135.672 201.25 135.141C201.781 134.578 202.453 134.297 203.265 134.297C204.078 134.297 204.75 134.578 205.281 135.141C205.812 135.672 206.078 136.344 206.078 137.156V139.172L205.375 139.031C205.656 138.5 206.062 137.937 206.594 137.344C207.125 136.719 207.75 136.141 208.469 135.609C209.187 135.078 210 134.656 210.906 134.344C211.812 134 212.797 133.828 213.859 133.828Z" fill="#00360A"/>
<path d="M240.189 159.844C237.533 159.844 235.22 159.297 233.251 158.203C231.314 157.078 229.814 155.562 228.751 153.656C227.72 151.75 227.205 149.594 227.205 147.187C227.205 144.375 227.767 141.984 228.892 140.016C230.048 138.016 231.548 136.484 233.392 135.422C235.236 134.359 237.189 133.828 239.251 133.828C240.845 133.828 242.345 134.156 243.751 134.812C245.189 135.469 246.455 136.375 247.548 137.531C248.642 138.656 249.501 139.969 250.126 141.469C250.783 142.969 251.111 144.562 251.111 146.25C251.08 147 250.783 147.609 250.22 148.078C249.658 148.547 249.001 148.781 248.251 148.781H230.345L228.939 144.094H246.142L245.111 145.031V143.766C245.048 142.859 244.72 142.047 244.126 141.328C243.564 140.609 242.845 140.047 241.97 139.641C241.126 139.203 240.22 138.984 239.251 138.984C238.314 138.984 237.439 139.109 236.626 139.359C235.814 139.609 235.111 140.031 234.517 140.625C233.923 141.219 233.455 142.016 233.111 143.016C232.767 144.016 232.595 145.281 232.595 146.812C232.595 148.5 232.939 149.937 233.626 151.125C234.345 152.281 235.251 153.172 236.345 153.797C237.47 154.391 238.658 154.687 239.908 154.687C241.064 154.687 241.986 154.594 242.673 154.406C243.361 154.219 243.908 154 244.314 153.75C244.751 153.469 245.142 153.234 245.486 153.047C246.048 152.766 246.58 152.625 247.08 152.625C247.767 152.625 248.33 152.859 248.767 153.328C249.236 153.797 249.47 154.344 249.47 154.969C249.47 155.812 249.033 156.578 248.158 157.266C247.345 157.953 246.205 158.562 244.736 159.094C243.267 159.594 241.751 159.844 240.189 159.844Z" fill="#00360A"/>
<path d="M129.75 190.875C131.5 190.875 133.05 191.313 134.4 192.188C135.775 193.063 136.863 194.263 137.663 195.788C138.463 197.288 138.863 199.038 138.863 201.038C138.863 203.038 138.463 204.813 137.663 206.363C136.863 207.888 135.788 209.088 134.438 209.963C133.088 210.838 131.563 211.275 129.863 211.275C128.913 211.275 128.013 211.125 127.163 210.825C126.313 210.525 125.563 210.138 124.913 209.663C124.263 209.163 123.725 208.638 123.3 208.088C122.9 207.538 122.65 207.025 122.55 206.55L123.563 206.063V216.525C123.563 217.075 123.375 217.525 123 217.875C122.65 218.25 122.213 218.438 121.688 218.438C121.138 218.438 120.688 218.25 120.338 217.875C119.988 217.525 119.812 217.075 119.812 216.525V193.05C119.812 192.525 119.988 192.075 120.338 191.7C120.688 191.325 121.138 191.138 121.688 191.138C122.213 191.138 122.65 191.325 123 191.7C123.375 192.075 123.563 192.525 123.563 193.05V195.638L122.963 195.3C123.038 194.825 123.275 194.338 123.675 193.838C124.075 193.313 124.575 192.825 125.175 192.375C125.8 191.925 126.5 191.563 127.275 191.288C128.075 191.013 128.9 190.875 129.75 190.875ZM129.338 194.325C128.138 194.325 127.088 194.625 126.188 195.225C125.313 195.8 124.625 196.588 124.125 197.588C123.625 198.588 123.375 199.738 123.375 201.038C123.375 202.313 123.625 203.475 124.125 204.525C124.625 205.55 125.313 206.363 126.188 206.963C127.088 207.538 128.138 207.825 129.338 207.825C130.513 207.825 131.538 207.538 132.413 206.963C133.288 206.363 133.975 205.55 134.475 204.525C135 203.475 135.263 202.313 135.263 201.038C135.263 199.763 135 198.625 134.475 197.625C133.975 196.6 133.288 195.8 132.413 195.225C131.538 194.625 130.513 194.325 129.338 194.325Z" fill="#00360A"/>
<path d="M159.266 190.913C159.816 190.913 160.266 191.1 160.616 191.475C160.966 191.825 161.141 192.275 161.141 192.825V209.025C161.141 209.575 160.966 210.038 160.616 210.413C160.266 210.763 159.816 210.938 159.266 210.938C158.741 210.938 158.291 210.763 157.916 210.413C157.566 210.038 157.391 209.575 157.391 209.025V206.325L158.179 206.438C158.179 206.888 157.991 207.388 157.616 207.938C157.266 208.488 156.779 209.025 156.154 209.55C155.529 210.05 154.791 210.475 153.941 210.825C153.091 211.15 152.179 211.313 151.204 211.313C149.479 211.313 147.929 210.875 146.554 210C145.179 209.1 144.091 207.875 143.291 206.325C142.491 204.775 142.091 203.013 142.091 201.038C142.091 199.013 142.491 197.238 143.291 195.713C144.091 194.163 145.166 192.95 146.516 192.075C147.891 191.2 149.416 190.763 151.091 190.763C152.166 190.763 153.154 190.938 154.054 191.288C154.979 191.638 155.779 192.088 156.454 192.638C157.129 193.188 157.641 193.775 157.991 194.4C158.366 195 158.554 195.575 158.554 196.125L157.391 196.238V192.825C157.391 192.3 157.566 191.85 157.916 191.475C158.291 191.1 158.741 190.913 159.266 190.913ZM151.616 207.863C152.791 207.863 153.829 207.563 154.729 206.963C155.629 206.363 156.329 205.55 156.829 204.525C157.329 203.475 157.579 202.313 157.579 201.038C157.579 199.738 157.329 198.575 156.829 197.55C156.329 196.525 155.629 195.713 154.729 195.113C153.829 194.513 152.791 194.213 151.616 194.213C150.466 194.213 149.441 194.513 148.541 195.113C147.666 195.713 146.966 196.525 146.441 197.55C145.941 198.575 145.691 199.738 145.691 201.038C145.691 202.313 145.941 203.475 146.441 204.525C146.966 205.55 147.666 206.363 148.541 206.963C149.441 207.563 150.466 207.863 151.616 207.863Z" fill="#00360A"/>
<path d="M181.057 191.063C181.607 191.063 182.057 191.25 182.407 191.625C182.757 191.975 182.932 192.425 182.932 192.975V209.1C182.932 211.3 182.507 213.088 181.657 214.463C180.832 215.838 179.707 216.838 178.282 217.463C176.882 218.113 175.295 218.438 173.52 218.438C172.62 218.438 171.72 218.35 170.82 218.175C169.92 218.025 169.182 217.8 168.607 217.5C168.007 217.225 167.582 216.888 167.332 216.488C167.082 216.088 167.045 215.65 167.22 215.175C167.395 214.575 167.695 214.163 168.12 213.938C168.545 213.738 168.982 213.725 169.432 213.9C169.857 214.075 170.42 214.3 171.12 214.575C171.82 214.85 172.62 214.988 173.52 214.988C174.745 214.988 175.782 214.788 176.632 214.388C177.482 213.988 178.12 213.363 178.545 212.513C178.995 211.663 179.22 210.563 179.22 209.213V206.625L179.82 207.525C179.42 208.35 178.895 209.038 178.245 209.588C177.595 210.138 176.82 210.563 175.92 210.863C175.045 211.163 174.07 211.313 172.995 211.313C171.62 211.313 170.432 211.013 169.432 210.413C168.457 209.788 167.707 208.938 167.182 207.863C166.657 206.763 166.395 205.513 166.395 204.113V192.975C166.395 192.425 166.57 191.975 166.92 191.625C167.27 191.25 167.72 191.063 168.27 191.063C168.795 191.063 169.232 191.25 169.582 191.625C169.957 191.975 170.145 192.425 170.145 192.975V203.1C170.145 204.75 170.507 205.963 171.232 206.738C171.957 207.488 173.032 207.863 174.457 207.863C175.407 207.863 176.232 207.663 176.932 207.263C177.632 206.863 178.182 206.313 178.582 205.613C178.982 204.888 179.182 204.05 179.182 203.1V192.975C179.182 192.425 179.357 191.975 179.707 191.625C180.082 191.25 180.532 191.063 181.057 191.063Z" fill="#00360A"/>
</svg>
