<svg width="32" height="32" viewBox="0 0 32 32" fill="none" xmlns="http://www.w3.org/2000/svg">
<g clip-path="url(#clip0_348_2689)">
<path d="M0 1C0 0.734784 0.105357 0.48043 0.292893 0.292893C0.48043 0.105357 0.734784 0 1 0L7 0C7.26522 0 7.51957 0.105357 7.70711 0.292893C7.89464 0.48043 8 0.734784 8 1C8 1.26522 7.89464 1.51957 7.70711 1.70711C7.51957 1.89464 7.26522 2 7 2H2V7C2 7.26522 1.89464 7.51957 1.70711 7.70711C1.51957 7.89464 1.26522 8 1 8C0.734784 8 0.48043 7.89464 0.292893 7.70711C0.105357 7.51957 0 7.26522 0 7V1ZM24 1C24 0.734784 24.1054 0.48043 24.2929 0.292893C24.4804 0.105357 24.7348 0 25 0L31 0C31.2652 0 31.5196 0.105357 31.7071 0.292893C31.8946 0.48043 32 0.734784 32 1V7C32 7.26522 31.8946 7.51957 31.7071 7.70711C31.5196 7.89464 31.2652 8 31 8C30.7348 8 30.4804 7.89464 30.2929 7.70711C30.1054 7.51957 30 7.26522 30 7V2H25C24.7348 2 24.4804 1.89464 24.2929 1.70711C24.1054 1.51957 24 1.26522 24 1ZM1 24C1.26522 24 1.51957 24.1054 1.70711 24.2929C1.89464 24.4804 2 24.7348 2 25V30H7C7.26522 30 7.51957 30.1054 7.70711 30.2929C7.89464 30.4804 8 30.7348 8 31C8 31.2652 7.89464 31.5196 7.70711 31.7071C7.51957 31.8946 7.26522 32 7 32H1C0.734784 32 0.48043 31.8946 0.292893 31.7071C0.105357 31.5196 0 31.2652 0 31V25C0 24.7348 0.105357 24.4804 0.292893 24.2929C0.48043 24.1054 0.734784 24 1 24ZM31 24C31.2652 24 31.5196 24.1054 31.7071 24.2929C31.8946 24.4804 32 24.7348 32 25V31C32 31.2652 31.8946 31.5196 31.7071 31.7071C31.5196 31.8946 31.2652 32 31 32H25C24.7348 32 24.4804 31.8946 24.2929 31.7071C24.1054 31.5196 24 31.2652 24 31C24 30.7348 24.1054 30.4804 24.2929 30.2929C24.4804 30.1054 24.7348 30 25 30H30V25C30 24.7348 30.1054 24.4804 30.2929 24.2929C30.4804 24.1054 30.7348 24 31 24ZM8 8H10V10H8V8Z" fill="#496961"/>
<path d="M14 4H4V14H14V4ZM6 6H12V12H6V6ZM10 22H8V24H10V22Z" fill="#496961"/>
<path d="M14 18H4V28H14V18ZM6 20H12V26H6V20ZM22 8H24V10H22V8Z" fill="#496961"/>
<path d="M18 4H28V14H18V4ZM20 6V12H26V6H20ZM16 16V20H18V22H16V24H20V20H22V24H24V22H28V20H22V16H16ZM20 20H18V18H20V20ZM28 24H26V26H22V28H28V24ZM20 28V26H16V28H20Z" fill="#496961"/>
<path d="M24 18H28V16H24V18Z" fill="#496961"/>
</g>
<defs>
<clipPath id="clip0_348_2689">
<rect width="32" height="32" fill="white"/>
</clipPath>
</defs>
</svg>
