<svg width="75" height="75" viewBox="0 0 75 75" fill="none" xmlns="http://www.w3.org/2000/svg">
<path d="M12.8559 63.007C13.9833 63.007 14.8973 62.3837 14.8973 61.6148C14.8973 60.846 13.9833 60.2227 12.8559 60.2227C11.7284 60.2227 10.8145 60.846 10.8145 61.6148C10.8145 62.3837 11.7284 63.007 12.8559 63.007Z" fill="#EEF1EF"/>
<path d="M72.6562 54.6902L71.8898 54.2402C71.8313 54.2062 65.9754 50.7316 64.5199 46.5152L64.1953 45.5812L63.5953 46.3652C63.5766 46.3898 62.7445 47.4188 60.416 48.6258C58.6922 38.8137 52.8281 27.0996 45.1219 22.1051C47.325 22.2832 49.5352 22.1004 51.668 21.3246C52.9523 20.8582 52.398 18.7652 51.102 19.2387C49.3535 19.875 47.6016 20.0484 45.8531 19.9594C50.1457 16.0254 53.516 9.99609 53.516 5.5875C53.516 4.52813 53.516 2.55586 51.9457 2.55586C51.3152 2.55586 50.8055 2.94961 50.1012 3.49336C49.0207 4.32656 47.3895 5.5875 44.993 5.5875C44.0801 5.5875 42.409 4.62422 41.066 3.85078C39.443 2.9168 38.4059 2.34375 37.534 2.34375C36.0902 2.34375 33.968 3.51094 32.0953 4.54102C31.3336 4.95937 30.2918 5.53359 30.0762 5.58867C27.3621 5.58867 25.7859 4.33711 24.7406 3.50859C24.1313 3.02344 23.6895 2.67187 23.1 2.67187C21.5555 2.67187 21.5555 4.52461 21.5555 6.67031C21.5555 10.8117 24.7102 16.2785 28.841 19.9523C26.2383 20.1387 23.6719 20.925 21.8684 22.6723C20.8723 23.6355 22.3816 25.1637 23.3742 24.2027C24.873 22.7496 26.8383 22.1273 28.9406 22.0066C29.0004 22.2211 29.073 22.432 29.1621 22.6395C20.3543 28.9688 14.0977 43.998 14.0977 54.1441C14.0977 55.1449 14.175 56.0508 14.2945 56.9039C12.0234 55.8949 11.1949 55.0102 11.1785 54.9902L10.5738 54.293L10.2762 55.1719C8.96016 59.0438 3.23906 62.4023 3.18164 62.4363L2.34375 62.9227L3.1957 63.3832C3.49453 63.5449 3.79102 63.6867 4.08984 63.8402L3.55078 64.2141L3.83555 67.7766L26.1633 72.6562L34.6289 67.241C35.4832 67.2457 36.348 67.248 37.2281 67.248L47.1234 72.6562L69.4934 65.625V61.8645L68.9016 61.5094C69.1969 61.3219 69.4922 61.1309 69.7863 60.934L70.5703 60.4102L70.398 60.3258L71.3953 60.0527L71.5641 56.1434L70.9875 55.7344C71.2945 55.5504 71.6004 55.3629 71.9074 55.1684L72.6562 54.6902ZM23.6871 6.67031C23.6871 6.15 23.6941 5.74453 23.7047 5.4293C23.884 5.56992 24.0926 5.72344 24.3152 5.88164C24.9984 7.51758 26.291 9.87305 28.4824 11.3566C31.1449 13.1613 30.791 11.0871 32.2113 9.19336C33.6316 7.30078 34.5926 6.30938 36.9715 11.1773C38.0086 13.2996 39.7371 7.36875 41.3801 6.50273C41.8148 6.73945 42.2484 6.95977 42.6738 7.14727C45.6199 11.9379 46.9852 10.4438 49.602 6.46172C50.3215 6.03984 50.9121 5.5875 51.382 5.22539C51.3844 5.33438 51.3867 5.45508 51.3867 5.58984C51.3867 9.35156 48.3129 14.7469 44.5488 18.266C44.3711 17.8144 44.1166 17.3969 43.7965 17.032C42.2766 15.3105 39.9012 17.2195 38.775 18.4723C36.777 17.8301 33.5215 16.0617 31.4004 17.0742C30.8721 17.3193 30.387 17.6481 29.9637 18.048C26.4949 14.8863 23.6871 10.3219 23.6871 6.67031ZM42.6762 19.5305C42.1507 19.4191 41.6283 19.294 41.1094 19.1555C41.7633 18.5918 42.3633 18.3949 42.6152 19.2328C42.6422 19.3242 42.6586 19.4285 42.6762 19.5305ZM33.7699 20.2582C33.382 20.1844 32.9836 20.1176 32.5734 20.0648C32.2624 19.8699 31.958 19.6647 31.6605 19.4496C32.7316 18.7313 34.5785 19.1133 36.3434 19.7121C35.4727 19.8 34.6137 19.9898 33.7699 20.2582ZM34.302 23.352C33.6457 23.516 32.9309 23.4504 32.3133 23.2043C32.5641 23.0719 32.8172 22.957 33.0703 22.841C33.4805 23.0391 33.8906 23.2043 34.302 23.352ZM12.6258 66.0691C9.83073 65.2597 7.11862 64.1873 4.52578 62.8664C6.11602 61.8211 9.58008 59.2934 10.9887 56.2559C11.9543 57.0141 14.1832 58.3969 18.5238 59.4586C18.45 59.5781 18.3598 59.7059 18.273 59.8312C14.5676 58.8609 12.4605 57.634 12.4266 57.6129L11.9156 57.3082L11.6707 57.8555C11.3484 58.5727 10.5926 58.6805 10.1719 58.6805C10.0547 58.6805 9.97617 58.6723 9.96562 58.6711L9.54727 58.6102L9.39492 59.0109C9.0832 59.8289 7.80352 60.8977 7.33477 61.241L6.55195 61.8152L7.44727 62.182C7.78008 62.318 7.87031 62.4434 7.875 62.4762C7.88672 62.557 7.74492 62.7703 7.59375 62.8934L6.91172 63.443L7.70508 63.8098C9.33047 64.5598 11.1715 65.1809 13.0125 65.693C12.866 65.8371 12.7395 65.9602 12.6258 66.0691ZM22.0758 61.7027C23.7141 61.9324 25.5293 62.0777 27.5121 62.0777H27.5133C27.9258 62.0777 28.3441 62.0707 28.7707 62.0578C28.7991 62.1462 28.8397 62.2302 28.8914 62.3074C28.9957 62.4656 29.1363 62.5969 29.3145 62.6988L26.3238 65.2547C26.2668 65.2522 26.2098 65.251 26.1527 65.2512C24.8203 65.2512 23.8266 65.741 23.3496 66.6129C21.5425 66.3824 19.7438 66.0904 17.9566 65.7375C19.3933 64.4591 20.7679 63.1126 22.0758 61.7027ZM8.77617 63.1055C8.89336 62.884 8.96953 62.6156 8.92852 62.3227C8.88956 62.0583 8.76285 61.8148 8.56875 61.6312C9.09492 61.1801 9.82031 60.484 10.2188 59.7633C11.1246 59.7504 11.8723 59.407 12.3434 58.8C13.1367 59.2148 14.9238 60.0527 17.5641 60.7793C16.4848 62.1328 15.0305 63.668 13.8996 64.8094C12.1371 64.343 10.3617 63.7805 8.77617 63.1055ZM25.4766 68.0379L25.2363 68.0391C24.2273 68.0391 20.884 67.957 16.4672 67.0371C16.6219 66.9059 16.7824 66.7711 16.9312 66.6422C20.5148 67.391 23.4047 67.7121 23.6215 67.7367L24.0504 67.7824L24.1828 67.3664C24.4723 66.4688 25.5398 66.3363 26.1516 66.3363C26.3191 66.3363 26.4305 66.3469 26.4434 66.348L26.6707 66.3727L31.8656 61.9336L30.477 61.8879C30.0129 61.8715 29.8172 61.7672 29.7691 61.6957L30.0633 60.9258L29.25 60.9598C28.657 60.9855 28.0781 60.9984 27.5121 60.9984H27.5109C25.875 60.9984 24.3574 60.8906 22.9547 60.7207L23.2805 60.3363C26.1117 60.7148 29.502 60.948 33.5953 60.9188C32.618 62.2898 30.1805 65.2043 25.4766 68.0379ZM37.2234 62.9461V65.0848C36.5566 65.0848 35.9074 65.0824 35.2723 65.0777L35.0812 62.6707L33.4945 62.7996C34.5633 61.5363 35.0191 60.6938 35.0602 60.6176L35.4902 59.8043L34.582 59.8207C25.8891 59.9801 20.2195 58.9441 16.6406 57.7934C16.3793 56.7363 16.2281 55.541 16.2281 54.1453C16.2281 44.6262 22.3113 30.2379 30.3879 24.4066C31.8188 25.7906 33.9891 26.3965 36.0516 25.05C36.5039 24.7547 36.8977 24.368 37.2668 23.9566C37.3547 23.959 37.4449 23.9789 37.534 23.9789C37.8293 23.9789 38.1293 23.9543 38.4281 23.9168C38.8066 24.068 39.177 24.2203 39.5203 24.3715C41.1645 25.0957 42.5684 24.6457 43.527 23.6473C50.925 28.1238 56.8523 39.9656 58.4121 49.5375C55.0301 50.8898 49.6652 52.2094 41.4316 52.4414C43.0559 51.5133 44.2746 49.9523 43.8363 47.9016C43.3758 45.7336 41.5641 45.1242 39.6879 45.0246C39.6832 44.0063 39.6832 42.9902 39.6902 41.9719C40.2656 42.2262 40.8176 42.5191 41.3191 42.832C42.2051 43.3887 43.0066 41.9461 42.1266 41.3895C41.3635 40.9097 40.549 40.517 39.6984 40.2188C39.7102 39.0398 39.716 37.8633 39.716 36.6867C39.7172 35.6086 38.1152 35.6086 38.1152 36.6867C38.1152 37.7215 38.1082 38.7551 38.0988 39.7875C37.2462 39.6389 36.3755 39.6243 35.5184 39.7441C35.379 38.9685 35.2101 38.1984 35.0121 37.4355C34.7473 36.3973 33.2004 36.8367 33.4688 37.8785C33.6656 38.6273 33.8262 39.3727 33.9586 40.1285C33.8906 40.1543 33.8168 40.1672 33.75 40.1977C31.5797 41.0566 30.2555 43.2469 31.8434 45.2895C32.5828 46.241 33.5496 46.6254 34.6078 46.7531C34.6652 48.1629 34.7016 49.5738 34.7426 50.9824C34.0336 50.5219 33.3879 49.9313 32.8031 49.3066C32.0789 48.5426 30.948 49.7227 31.6711 50.4855C32.6543 51.532 33.6867 52.323 34.8059 52.8293C34.8563 54.0328 34.9277 55.2398 35.0449 56.4375C35.148 57.5004 36.7512 57.5062 36.6469 56.4375C36.5481 55.4016 36.475 54.3634 36.4277 53.3238C37.0371 53.4293 37.677 53.4562 38.3566 53.3918C38.4328 54.5004 38.5219 55.609 38.6484 56.7176C38.7211 57.3527 39.3281 57.6023 39.7758 57.4734L39.6762 59.775C38.9707 59.8383 38.2512 59.8969 37.5012 59.9461L36.6082 60.0047L37.084 60.7734C37.132 60.8508 37.6723 61.7051 38.8781 62.9484H37.2234V62.9461ZM66.3891 55.2328C64.916 55.9254 63.0527 56.5605 61.1543 57.1148C59.9871 55.909 58.4941 54.3 57.3797 52.8727C59.8629 52.1203 61.2527 51.3445 61.8797 50.9262C62.3754 51.3633 63.0316 51.5906 63.8086 51.5895C64.0664 51.5895 64.2949 51.5648 64.4707 51.5367C65.0332 52.2656 65.9402 53.107 66.5074 53.6098C66.2391 53.8852 66.109 54.1898 66.1195 54.5191C66.1289 54.8004 66.2414 55.0395 66.3891 55.2328ZM58.0043 59.0836C58.2434 59.2945 58.4906 59.5102 58.7426 59.7281C53.9918 60.9879 50.4562 61.125 49.6863 61.1379C44.7668 58.1367 42.2168 54.9609 41.2336 53.5312C45.3504 53.4281 48.7535 53.0555 51.5918 52.5422C51.7072 52.6839 51.824 52.8246 51.9422 52.9641C49.6609 53.3193 47.3617 53.5474 45.0551 53.6473L44.1094 53.6871L44.6297 54.4828C44.6285 54.484 44.523 54.6809 43.8246 54.8168L42.6891 55.0383L48.2719 59.5582L48.532 59.4879C48.5379 59.4867 49.0301 59.3543 49.6254 59.3543C50.4844 59.3543 51.0715 59.6156 51.3668 60.1266L51.5543 60.45L51.9188 60.3855C53.96 60.0134 55.9895 59.5792 58.0043 59.0836ZM41.4844 55.6395L40.1508 55.5668C40.0887 54.9012 40.0266 54.2355 39.9797 53.5699C40.2141 53.959 40.6945 54.6902 41.4844 55.6395ZM39.8344 51.3492C39.7575 49.7717 39.711 48.1929 39.6949 46.6137C39.8871 46.6207 40.077 46.6383 40.2574 46.6641C42.3293 46.9781 42.8707 49.282 41.2535 50.5781C40.8316 50.9121 40.3453 51.157 39.8344 51.3492ZM52.0676 59.2617C51.5426 58.6137 50.707 58.2738 49.6266 58.2738C49.1754 58.2738 48.7781 58.3348 48.5273 58.384L45.0176 55.5398C45.3094 55.3723 45.5062 55.1602 45.6141 54.9C45.6406 54.8353 45.661 54.7682 45.675 54.6996C48.457 54.5473 50.8008 54.2695 52.7824 53.9297C53.7434 55.002 55.1555 56.4809 57.0281 58.2C54.7277 58.7473 52.8094 59.1223 52.0676 59.2617ZM38.0918 46.6559C38.1141 48.3539 38.1562 50.0566 38.2465 51.7535C38.0953 51.777 37.9465 51.8063 37.7977 51.8215C37.2938 51.8789 36.8156 51.8367 36.3609 51.7219C36.3035 50.0813 36.266 48.4371 36.2039 46.7953C36.8344 46.766 37.473 46.7039 38.0918 46.6559ZM36.123 45.1734C36.0498 43.8858 35.9287 42.6013 35.7598 41.3227C36.5365 41.2159 37.3264 41.256 38.0883 41.441C38.0799 42.639 38.0779 43.8371 38.0824 45.0352C37.568 45.0633 37.0793 45.1125 36.6492 45.1512C36.4741 45.1648 36.2986 45.1723 36.123 45.1734ZM34.5152 44.9684C34.4156 44.9414 34.3172 44.9203 34.2152 44.8863C33.7463 44.7274 33.3218 44.4595 32.9766 44.1047C31.9758 43.1707 33.3492 42.2543 34.2152 41.8195C34.3512 42.8625 34.4449 43.9148 34.5152 44.9684ZM47.4492 67.7801C42.3621 65.1809 39.6328 62.2922 38.5488 60.9539C39.3281 60.8953 40.0652 60.825 40.7953 60.7512L49.1367 66.1652L67.4297 61.1402C57.9961 66.8262 48.6762 67.6922 47.4492 67.7801ZM62.557 58.534C62.407 58.384 62.2277 58.2059 62.0156 57.9914C64.0969 57.3609 66.1102 56.6297 67.6113 55.8258L68.5242 55.3348L67.5984 54.8637C67.391 54.757 67.1883 54.5613 67.1848 54.4875C67.1871 54.4594 67.2691 54.3094 67.6242 54.1055L68.3016 53.7164L67.6992 53.2148C67.6805 53.1996 65.802 51.6398 65.1422 50.6355L64.9242 50.3074L64.5504 50.4164C64.5469 50.4164 64.2258 50.509 63.8086 50.509C63.1641 50.5102 62.6812 50.2992 62.3719 49.8844L62.0297 49.4309L61.6008 49.8C61.5785 49.8187 60.2508 50.9074 56.6895 51.9363C56.5722 51.7674 56.4592 51.5955 56.3508 51.4207C60.6691 50.1117 62.8758 48.5273 63.832 47.6602C65.3672 50.9812 69.0223 53.6566 70.609 54.7055C68.0599 56.248 65.3624 57.5306 62.557 58.534Z" fill="#EEF1EF"/>
<path d="M52.0078 55.2148C50.8395 54.8972 49.5211 55.114 49.0594 55.6941C48.6012 56.2765 49.1801 57.0101 50.3473 57.33C51.5168 57.6476 52.834 57.4296 53.2957 56.8483C53.7539 56.2659 53.1774 55.5347 52.0078 55.2148Z" fill="#EEF1EF"/>
</svg>
